<?xml version="1.0" encoding="UTF-8" standalone="no"?><svg xmlns="http://www.w3.org/2000/svg" xmlns:xlink="http://www.w3.org/1999/xlink" contentScriptType="application/ecmascript" contentStyleType="text/css" height="1027px" preserveAspectRatio="none" style="width:2240px;height:1027px;" version="1.1" viewBox="0 0 2240 1027" width="2240px" zoomAndPan="magnify"><defs><filter height="300%" id="fdra1hx5l7f61" width="300%" x="-1" y="-1"><feGaussianBlur result="blurOut" stdDeviation="2.0"/><feColorMatrix in="blurOut" result="blurOut2" type="matrix" values="0 0 0 0 0 0 0 0 0 0 0 0 0 0 0 0 0 0 .4 0"/><feOffset dx="4.0" dy="4.0" in="blurOut2" result="blurOut3"/><feBlend in="SourceGraphic" in2="blurOut3" mode="normal"/></filter></defs><g><!--MD5=[5cfab5b04cdf05e5366f3e80dae1ecfc]
cluster ini--><polygon fill="#FFFFFF" filter="url(#fdra1hx5l7f61)" points="22,24,45,24,52,47.6094,2218,47.6094,2218,1015,22,1015,22,24" style="stroke: #000000; stroke-width: 1.5;"/><line style="stroke: #000000; stroke-width: 1.5;" x1="22" x2="52" y1="47.6094" y2="47.6094"/><text fill="#000000" font-family="sans-serif" font-size="14" font-weight="bold" lengthAdjust="spacingAndGlyphs" textLength="17" x="26" y="40.5332">ini</text><!--MD5=[e336f1ff8f9c555af16017db3f2fa897]
cluster myini--><polygon fill="#FFFFFF" filter="url(#fdra1hx5l7f61)" points="55,376,97,376,104,399.6094,595,399.6094,595,518,55,518,55,376" style="stroke: #000000; stroke-width: 1.5;"/><line style="stroke: #000000; stroke-width: 1.5;" x1="55" x2="104" y1="399.6094" y2="399.6094"/><text fill="#000000" font-family="sans-serif" font-size="14" font-weight="bold" lengthAdjust="spacingAndGlyphs" textLength="36" x="59" y="392.5332">myini</text><!--MD5=[9f6a55d213e9a846a3b322d9f581119f]
cluster inireaders--><polygon fill="#FFFFFF" filter="url(#fdra1hx5l7f61)" points="683,114,761,114,768,137.6094,2194,137.6094,2194,991,683,991,683,114" style="stroke: #000000; stroke-width: 1.5;"/><line style="stroke: #000000; stroke-width: 1.5;" x1="683" x2="768" y1="137.6094" y2="137.6094"/><text fill="#000000" font-family="sans-serif" font-size="14" font-weight="bold" lengthAdjust="spacingAndGlyphs" textLength="72" x="687" y="130.5332">inireaders</text><!--MD5=[3f899d52d11b7656dc9e443a799940cc]
cluster fsm--><polygon fill="#FFFFFF" filter="url(#fdra1hx5l7f61)" points="812,397,843,397,850,420.6094,954,420.6094,954,497,812,497,812,397" style="stroke: #000000; stroke-width: 1.5;"/><line style="stroke: #000000; stroke-width: 1.5;" x1="812" x2="850" y1="420.6094" y2="420.6094"/><text fill="#000000" font-family="sans-serif" font-size="14" font-weight="bold" lengthAdjust="spacingAndGlyphs" textLength="25" x="816" y="413.5332">fsm</text><!--MD5=[a3e4aa106f01c4c098e3d144bb240ff1]
cluster chain--><polygon fill="#FFFFFF" filter="url(#fdra1hx5l7f61)" points="978,332,1022,332,1029,355.6094,2170,355.6094,2170,967,978,967,978,332" style="stroke: #000000; stroke-width: 1.5;"/><line style="stroke: #000000; stroke-width: 1.5;" x1="978" x2="1029" y1="355.6094" y2="355.6094"/><text fill="#000000" font-family="sans-serif" font-size="14" font-weight="bold" lengthAdjust="spacingAndGlyphs" textLength="38" x="982" y="348.5332">chain</text><!--MD5=[10ae9c7cefa47ac2b1a2ba4b3caf6618]
cluster processors--><polygon fill="#FFFFFF" filter="url(#fdra1hx5l7f61)" points="1314,376,1400,376,1407,399.6094,2146,399.6094,2146,640,1314,640,1314,376" style="stroke: #000000; stroke-width: 1.5;"/><line style="stroke: #000000; stroke-width: 1.5;" x1="1314" x2="1407" y1="399.6094" y2="399.6094"/><text fill="#000000" font-family="sans-serif" font-size="14" font-weight="bold" lengthAdjust="spacingAndGlyphs" textLength="80" x="1318" y="392.5332">processors</text><!--MD5=[9826c328e339e3f4dc89c4faad8a7582]
class IIniConfig--><rect fill="#FEFECE" filter="url(#fdra1hx5l7f61)" height="255.5391" id="IIniConfig" style="stroke: #A80036; stroke-width: 1.5;" width="346" x="321" y="60"/><ellipse cx="462.75" cy="76" fill="#B4A7E5" rx="11" ry="11" style="stroke: #A80036; stroke-width: 1.0;"/><path d="M463.75,73 L463.75,79 L465.75,79 L466.2344,79 L466.75,79.625 L466.75,80 L466.75,80.375 L466.2344,81 L465.75,81 L459.75,81 L459.2656,81 L458.75,80.375 L458.75,80 L458.75,79.625 L459.2656,79 L459.75,79 L461.75,79 L461.75,73 L459.75,73 L459.2656,73 L458.75,72.375 L458.75,72 L458.75,71.625 L459.2656,71 L459.75,71 L465.75,71 L466.2344,71 L466.75,71.625 L466.75,72 L466.75,72.375 L466.2344,73 L465.75,73 L463.75,73 Z "/><text fill="#000000" font-family="sans-serif" font-size="12" font-style="italic" lengthAdjust="spacingAndGlyphs" textLength="54" x="483.25" y="80.9102">IIniConfig</text><line style="stroke: #A80036; stroke-width: 1.5;" x1="322" x2="666" y1="92" y2="92"/><line style="stroke: #A80036; stroke-width: 1.5;" x1="322" x2="666" y1="100" y2="100"/><ellipse cx="332" cy="111" fill="#84BE84" rx="3" ry="3" style="stroke: #038048; stroke-width: 1.0;"/><text fill="#000000" font-family="sans-serif" font-size="11" lengthAdjust="spacingAndGlyphs" textLength="206" x="341" y="115.4189">getSection(String sectionName): IIniSection</text><ellipse cx="332" cy="124.8359" fill="#84BE84" rx="3" ry="3" style="stroke: #038048; stroke-width: 1.0;"/><text fill="#000000" font-family="sans-serif" font-size="11" lengthAdjust="spacingAndGlyphs" textLength="232" x="341" y="129.2549">getValue(String sectionName, String key): String</text><ellipse cx="332" cy="138.6719" fill="#84BE84" rx="3" ry="3" style="stroke: #038048; stroke-width: 1.0;"/><text fill="#000000" font-family="sans-serif" font-size="11" lengthAdjust="spacingAndGlyphs" textLength="236" x="341" y="143.0908">hasItem(String sectionName, String key): boolean</text><ellipse cx="332" cy="152.5078" fill="#84BE84" rx="3" ry="3" style="stroke: #038048; stroke-width: 1.0;"/><text fill="#000000" font-family="sans-serif" font-size="11" lengthAdjust="spacingAndGlyphs" textLength="199" x="341" y="156.9268">hasSection(String sectionName): boolean</text><ellipse cx="332" cy="166.3438" fill="#84BE84" rx="3" ry="3" style="stroke: #038048; stroke-width: 1.0;"/><text fill="#000000" font-family="sans-serif" font-size="11" lengthAdjust="spacingAndGlyphs" textLength="87" x="341" y="170.7627">load(File file): void</text><ellipse cx="332" cy="180.1797" fill="#84BE84" rx="3" ry="3" style="stroke: #038048; stroke-width: 1.0;"/><text fill="#000000" font-family="sans-serif" font-size="11" lengthAdjust="spacingAndGlyphs" textLength="167" x="341" y="184.5986">load(BufferedReader reader): void</text><ellipse cx="332" cy="194.0156" fill="#84BE84" rx="3" ry="3" style="stroke: #038048; stroke-width: 1.0;"/><text fill="#000000" font-family="sans-serif" font-size="11" lengthAdjust="spacingAndGlyphs" textLength="92" x="341" y="198.4346">store(File file): void</text><ellipse cx="332" cy="207.8516" fill="#84BE84" rx="3" ry="3" style="stroke: #038048; stroke-width: 1.0;"/><text fill="#000000" font-family="sans-serif" font-size="11" lengthAdjust="spacingAndGlyphs" textLength="302" x="341" y="212.2705">putSectionComment(String sectionName, String comment): void</text><ellipse cx="332" cy="221.6875" fill="#84BE84" rx="3" ry="3" style="stroke: #038048; stroke-width: 1.0;"/><text fill="#000000" font-family="sans-serif" font-size="11" lengthAdjust="spacingAndGlyphs" textLength="320" x="341" y="226.1064">putComment(String sectionName, String key, String comment): void</text><ellipse cx="332" cy="235.5234" fill="#84BE84" rx="3" ry="3" style="stroke: #038048; stroke-width: 1.0;"/><text fill="#000000" font-family="sans-serif" font-size="11" lengthAdjust="spacingAndGlyphs" textLength="202" x="341" y="239.9424">putHeaderComment(String comment): void</text><ellipse cx="332" cy="249.3594" fill="#84BE84" rx="3" ry="3" style="stroke: #038048; stroke-width: 1.0;"/><text fill="#000000" font-family="sans-serif" font-size="11" lengthAdjust="spacingAndGlyphs" textLength="230" x="341" y="253.7783">getSectionComment(String sectionName): String</text><ellipse cx="332" cy="263.1953" fill="#84BE84" rx="3" ry="3" style="stroke: #038048; stroke-width: 1.0;"/><text fill="#000000" font-family="sans-serif" font-size="11" lengthAdjust="spacingAndGlyphs" textLength="248" x="341" y="267.6143">getComment(String sectionName, String key): String</text><ellipse cx="332" cy="277.0313" fill="#84BE84" rx="3" ry="3" style="stroke: #038048; stroke-width: 1.0;"/><text fill="#000000" font-family="sans-serif" font-size="11" lengthAdjust="spacingAndGlyphs" textLength="136" x="341" y="281.4502">getHeaderComment(): String</text><ellipse cx="332" cy="290.8672" fill="#84BE84" rx="3" ry="3" style="stroke: #038048; stroke-width: 1.0;"/><text fill="#000000" font-family="sans-serif" font-size="11" lengthAdjust="spacingAndGlyphs" textLength="284" x="341" y="295.2861">putValue(String sectionName, String key, String value):void</text><ellipse cx="332" cy="304.7031" fill="#84BE84" rx="3" ry="3" style="stroke: #038048; stroke-width: 1.0;"/><text fill="#000000" font-family="sans-serif" font-size="11" lengthAdjust="spacingAndGlyphs" textLength="79" x="341" y="309.1221">toString(): String</text><!--MD5=[af56c6377b5ff70590ebecd3f82ae568]
class IIniSection--><rect fill="#FEFECE" filter="url(#fdra1hx5l7f61)" height="158.6875" id="IIniSection" style="stroke: #A80036; stroke-width: 1.5;" width="247" x="38.5" y="108.5"/><ellipse cx="128.25" cy="124.5" fill="#B4A7E5" rx="11" ry="11" style="stroke: #A80036; stroke-width: 1.0;"/><path d="M129.25,121.5 L129.25,127.5 L131.25,127.5 L131.7344,127.5 L132.25,128.125 L132.25,128.5 L132.25,128.875 L131.7344,129.5 L131.25,129.5 L125.25,129.5 L124.7656,129.5 L124.25,128.875 L124.25,128.5 L124.25,128.125 L124.7656,127.5 L125.25,127.5 L127.25,127.5 L127.25,121.5 L125.25,121.5 L124.7656,121.5 L124.25,120.875 L124.25,120.5 L124.25,120.125 L124.7656,119.5 L125.25,119.5 L131.25,119.5 L131.7344,119.5 L132.25,120.125 L132.25,120.5 L132.25,120.875 L131.7344,121.5 L131.25,121.5 L129.25,121.5 Z "/><text fill="#000000" font-family="sans-serif" font-size="12" font-style="italic" lengthAdjust="spacingAndGlyphs" textLength="59" x="148.75" y="129.4102">IIniSection</text><line style="stroke: #A80036; stroke-width: 1.5;" x1="39.5" x2="284.5" y1="140.5" y2="140.5"/><line style="stroke: #A80036; stroke-width: 1.5;" x1="39.5" x2="284.5" y1="148.5" y2="148.5"/><ellipse cx="49.5" cy="159.5" fill="#84BE84" rx="3" ry="3" style="stroke: #038048; stroke-width: 1.0;"/><text fill="#000000" font-family="sans-serif" font-size="11" lengthAdjust="spacingAndGlyphs" textLength="133" x="58.5" y="163.9189">getValue(String key): String</text><ellipse cx="49.5" cy="173.3359" fill="#84BE84" rx="3" ry="3" style="stroke: #038048; stroke-width: 1.0;"/><text fill="#000000" font-family="sans-serif" font-size="11" lengthAdjust="spacingAndGlyphs" textLength="137" x="58.5" y="177.7549">hasItem(String key): boolean</text><ellipse cx="49.5" cy="187.1719" fill="#84BE84" rx="3" ry="3" style="stroke: #038048; stroke-width: 1.0;"/><text fill="#000000" font-family="sans-serif" font-size="11" lengthAdjust="spacingAndGlyphs" textLength="188" x="58.5" y="191.5908">putValue(String key, String value): void</text><ellipse cx="49.5" cy="201.0078" fill="#84BE84" rx="3" ry="3" style="stroke: #038048; stroke-width: 1.0;"/><text fill="#000000" font-family="sans-serif" font-size="11" lengthAdjust="spacingAndGlyphs" textLength="221" x="58.5" y="205.4268">putComment(String key, String comment): void</text><ellipse cx="49.5" cy="214.8438" fill="#84BE84" rx="3" ry="3" style="stroke: #038048; stroke-width: 1.0;"/><text fill="#000000" font-family="sans-serif" font-size="11" lengthAdjust="spacingAndGlyphs" textLength="203" x="58.5" y="219.2627">putSectionComment(String comment): void</text><ellipse cx="49.5" cy="228.6797" fill="#84BE84" rx="3" ry="3" style="stroke: #038048; stroke-width: 1.0;"/><text fill="#000000" font-family="sans-serif" font-size="11" lengthAdjust="spacingAndGlyphs" textLength="149" x="58.5" y="233.0986">getComment(String key): String</text><ellipse cx="49.5" cy="242.5156" fill="#84BE84" rx="3" ry="3" style="stroke: #038048; stroke-width: 1.0;"/><text fill="#000000" font-family="sans-serif" font-size="11" lengthAdjust="spacingAndGlyphs" textLength="137" x="58.5" y="246.9346">getSectionComment(): String</text><ellipse cx="49.5" cy="256.3516" fill="#84BE84" rx="3" ry="3" style="stroke: #038048; stroke-width: 1.0;"/><text fill="#000000" font-family="sans-serif" font-size="11" lengthAdjust="spacingAndGlyphs" textLength="79" x="58.5" y="260.7705">toString(): String</text><!--MD5=[350af372f3784007dff2b460e61f1774]
class CustomIIniConfig--><rect fill="#FEFECE" filter="url(#fdra1hx5l7f61)" height="89.5078" id="CustomIIniConfig" style="stroke: #A80036; stroke-width: 1.5;" width="190" x="389" y="412"/><ellipse cx="431.9" cy="428" fill="#ADD1B2" rx="11" ry="11" style="stroke: #A80036; stroke-width: 1.0;"/><path d="M433.9,424.5 Q434.1031,424 434.3375,423.75 Q434.5719,423.5 434.8375,423.5 Q435.3063,423.5 435.6031,423.7813 Q435.9,424.0625 435.9,424.7188 L435.9,426.2813 Q435.9,426.9375 435.6188,427.2188 Q435.3375,427.5 434.9,427.5 Q434.5094,427.5 434.2594,427.3281 Q434.0094,427.1563 433.9,426.7031 Q433.8531,426.3906 433.6813,426.2188 Q433.3688,425.8906 432.8063,425.7031 Q432.2438,425.5 431.6813,425.5 Q430.9781,425.5 430.3844,425.7813 Q429.8063,426.0625 429.3531,426.6875 Q428.9,427.3125 428.9,428.1719 L428.9,429.0938 Q428.9,430.125 429.7438,430.8125 Q430.5875,431.5 432.0875,431.5 Q432.9781,431.5 433.6031,431.2969 Q433.9625,431.1875 434.3688,430.8281 Q434.6344,430.625 434.775,430.5625 Q434.9156,430.5 435.0875,430.5 Q435.4156,430.5 435.65,430.7656 Q435.9,431.0156 435.9,431.375 Q435.9,431.7188 435.5563,432.125 Q435.0563,432.7188 434.2594,433.0469 Q433.2125,433.5 431.9313,433.5 Q430.4313,433.5 429.2281,432.9063 Q428.2594,432.4375 427.5719,431.4219 Q426.9,430.4063 426.9,429.2031 L426.9,428.1094 Q426.9,426.8594 427.4938,425.7656 Q428.1031,424.6719 429.15,424.0938 Q430.2125,423.5 431.4,423.5 Q432.1188,423.5 432.7438,423.75 Q433.3688,424 433.9,424.5 Z "/><text fill="#000000" font-family="sans-serif" font-size="12" lengthAdjust="spacingAndGlyphs" textLength="96" x="452.1" y="432.9102">CustomIIniConfig</text><line style="stroke: #A80036; stroke-width: 1.5;" x1="390" x2="578" y1="444" y2="444"/><rect fill="none" height="6" style="stroke: #C82930; stroke-width: 1.0;" width="6" x="397" y="452"/><text fill="#000000" font-family="sans-serif" font-size="11" lengthAdjust="spacingAndGlyphs" textLength="115" x="409" y="459.4189">headerComment : String</text><rect fill="none" height="6" style="stroke: #C82930; stroke-width: 1.0;" width="6" x="397" y="465.8359"/><text fill="#000000" font-family="sans-serif" font-size="11" lengthAdjust="spacingAndGlyphs" textLength="164" x="409" y="473.2549">sections : Map&lt;String, IIniSection&gt;</text><rect fill="none" height="6" style="stroke: #C82930; stroke-width: 1.0;" width="6" x="397" y="479.6719"/><text fill="#000000" font-family="sans-serif" font-size="11" lengthAdjust="spacingAndGlyphs" textLength="86" x="409" y="487.0908">loader : IIniReader</text><line style="stroke: #A80036; stroke-width: 1.5;" x1="390" x2="578" y1="493.5078" y2="493.5078"/><!--MD5=[0b0ebba5c4db3ebb7d1860c7d4d6d2e0]
class CustomIIniSection--><rect fill="#FEFECE" filter="url(#fdra1hx5l7f61)" height="89.5078" id="CustomIIniSection" style="stroke: #A80036; stroke-width: 1.5;" width="144" x="210" y="412"/><ellipse cx="229.95" cy="428" fill="#ADD1B2" rx="11" ry="11" style="stroke: #A80036; stroke-width: 1.0;"/><path d="M231.95,424.5 Q232.1531,424 232.3875,423.75 Q232.6219,423.5 232.8875,423.5 Q233.3563,423.5 233.6531,423.7813 Q233.95,424.0625 233.95,424.7188 L233.95,426.2813 Q233.95,426.9375 233.6688,427.2188 Q233.3875,427.5 232.95,427.5 Q232.5594,427.5 232.3094,427.3281 Q232.0594,427.1563 231.95,426.7031 Q231.9031,426.3906 231.7313,426.2188 Q231.4188,425.8906 230.8563,425.7031 Q230.2938,425.5 229.7313,425.5 Q229.0281,425.5 228.4344,425.7813 Q227.8563,426.0625 227.4031,426.6875 Q226.95,427.3125 226.95,428.1719 L226.95,429.0938 Q226.95,430.125 227.7938,430.8125 Q228.6375,431.5 230.1375,431.5 Q231.0281,431.5 231.6531,431.2969 Q232.0125,431.1875 232.4188,430.8281 Q232.6844,430.625 232.825,430.5625 Q232.9656,430.5 233.1375,430.5 Q233.4656,430.5 233.7,430.7656 Q233.95,431.0156 233.95,431.375 Q233.95,431.7188 233.6063,432.125 Q233.1063,432.7188 232.3094,433.0469 Q231.2625,433.5 229.9813,433.5 Q228.4813,433.5 227.2781,432.9063 Q226.3094,432.4375 225.6219,431.4219 Q224.95,430.4063 224.95,429.2031 L224.95,428.1094 Q224.95,426.8594 225.5438,425.7656 Q226.1531,424.6719 227.2,424.0938 Q228.2625,423.5 229.45,423.5 Q230.1688,423.5 230.7938,423.75 Q231.4188,424 231.95,424.5 Z "/><text fill="#000000" font-family="sans-serif" font-size="12" lengthAdjust="spacingAndGlyphs" textLength="101" x="245.05" y="432.9102">CustomIIniSection</text><line style="stroke: #A80036; stroke-width: 1.5;" x1="211" x2="353" y1="444" y2="444"/><rect fill="none" height="6" style="stroke: #C82930; stroke-width: 1.0;" width="6" x="218" y="452"/><text fill="#000000" font-family="sans-serif" font-size="11" lengthAdjust="spacingAndGlyphs" textLength="63" x="230" y="459.4189">name : String</text><rect fill="none" height="6" style="stroke: #C82930; stroke-width: 1.0;" width="6" x="218" y="465.8359"/><text fill="#000000" font-family="sans-serif" font-size="11" lengthAdjust="spacingAndGlyphs" textLength="80" x="230" y="473.2549">comment : String</text><rect fill="none" height="6" style="stroke: #C82930; stroke-width: 1.0;" width="6" x="218" y="479.6719"/><text fill="#000000" font-family="sans-serif" font-size="11" lengthAdjust="spacingAndGlyphs" textLength="118" x="230" y="487.0908">items : List&lt;CustomItem&gt;</text><line style="stroke: #A80036; stroke-width: 1.5;" x1="211" x2="353" y1="493.5078" y2="493.5078"/><!--MD5=[4cc553d354987d9dc5bc84613f3fa3cd]
class CustomItem--><rect fill="#FEFECE" filter="url(#fdra1hx5l7f61)" height="89.5078" id="CustomItem" style="stroke: #A80036; stroke-width: 1.5;" width="103" x="71.5" y="412"/><ellipse cx="87.85" cy="428" fill="#ADD1B2" rx="11" ry="11" style="stroke: #A80036; stroke-width: 1.0;"/><path d="M89.85,424.5 Q90.0531,424 90.2875,423.75 Q90.5219,423.5 90.7875,423.5 Q91.2563,423.5 91.5531,423.7813 Q91.85,424.0625 91.85,424.7188 L91.85,426.2813 Q91.85,426.9375 91.5688,427.2188 Q91.2875,427.5 90.85,427.5 Q90.4594,427.5 90.2094,427.3281 Q89.9594,427.1563 89.85,426.7031 Q89.8031,426.3906 89.6313,426.2188 Q89.3188,425.8906 88.7563,425.7031 Q88.1938,425.5 87.6313,425.5 Q86.9281,425.5 86.3344,425.7813 Q85.7563,426.0625 85.3031,426.6875 Q84.85,427.3125 84.85,428.1719 L84.85,429.0938 Q84.85,430.125 85.6938,430.8125 Q86.5375,431.5 88.0375,431.5 Q88.9281,431.5 89.5531,431.2969 Q89.9125,431.1875 90.3188,430.8281 Q90.5844,430.625 90.725,430.5625 Q90.8656,430.5 91.0375,430.5 Q91.3656,430.5 91.6,430.7656 Q91.85,431.0156 91.85,431.375 Q91.85,431.7188 91.5063,432.125 Q91.0063,432.7188 90.2094,433.0469 Q89.1625,433.5 87.8813,433.5 Q86.3813,433.5 85.1781,432.9063 Q84.2094,432.4375 83.5219,431.4219 Q82.85,430.4063 82.85,429.2031 L82.85,428.1094 Q82.85,426.8594 83.4438,425.7656 Q84.0531,424.6719 85.1,424.0938 Q86.1625,423.5 87.35,423.5 Q88.0688,423.5 88.6938,423.75 Q89.3188,424 89.85,424.5 Z "/><text fill="#000000" font-family="sans-serif" font-size="12" lengthAdjust="spacingAndGlyphs" textLength="68" x="102.15" y="432.9102">CustomItem</text><line style="stroke: #A80036; stroke-width: 1.5;" x1="72.5" x2="173.5" y1="444" y2="444"/><rect fill="none" height="6" style="stroke: #C82930; stroke-width: 1.0;" width="6" x="79.5" y="452"/><text fill="#000000" font-family="sans-serif" font-size="11" lengthAdjust="spacingAndGlyphs" textLength="51" x="91.5" y="459.4189">key: String</text><rect fill="none" height="6" style="stroke: #C82930; stroke-width: 1.0;" width="6" x="79.5" y="465.8359"/><text fill="#000000" font-family="sans-serif" font-size="11" lengthAdjust="spacingAndGlyphs" textLength="60" x="91.5" y="473.2549">value: String</text><rect fill="none" height="6" style="stroke: #C82930; stroke-width: 1.0;" width="6" x="79.5" y="479.6719"/><text fill="#000000" font-family="sans-serif" font-size="11" lengthAdjust="spacingAndGlyphs" textLength="77" x="91.5" y="487.0908">comment: String</text><line style="stroke: #A80036; stroke-width: 1.5;" x1="72.5" x2="173.5" y1="493.5078" y2="493.5078"/><!--MD5=[fcfd1169e922f229022073cddac2ba49]
class IIniReader--><rect fill="#FEFECE" filter="url(#fdra1hx5l7f61)" height="75.6719" id="IIniReader" style="stroke: #A80036; stroke-width: 1.5;" width="255" x="980.5" y="150"/><ellipse cx="1074.25" cy="166" fill="#B4A7E5" rx="11" ry="11" style="stroke: #A80036; stroke-width: 1.0;"/><path d="M1075.25,163 L1075.25,169 L1077.25,169 L1077.7344,169 L1078.25,169.625 L1078.25,170 L1078.25,170.375 L1077.7344,171 L1077.25,171 L1071.25,171 L1070.7656,171 L1070.25,170.375 L1070.25,170 L1070.25,169.625 L1070.7656,169 L1071.25,169 L1073.25,169 L1073.25,163 L1071.25,163 L1070.7656,163 L1070.25,162.375 L1070.25,162 L1070.25,161.625 L1070.7656,161 L1071.25,161 L1077.25,161 L1077.7344,161 L1078.25,161.625 L1078.25,162 L1078.25,162.375 L1077.7344,163 L1077.25,163 L1075.25,163 Z "/><text fill="#000000" font-family="sans-serif" font-size="12" font-style="italic" lengthAdjust="spacingAndGlyphs" textLength="59" x="1094.75" y="170.9102">IIniReader</text><line style="stroke: #A80036; stroke-width: 1.5;" x1="981.5" x2="1234.5" y1="182" y2="182"/><line style="stroke: #A80036; stroke-width: 1.5;" x1="981.5" x2="1234.5" y1="190" y2="190"/><ellipse cx="991.5" cy="201" fill="#84BE84" rx="3" ry="3" style="stroke: #038048; stroke-width: 1.0;"/><text fill="#000000" font-family="sans-serif" font-size="11" lengthAdjust="spacingAndGlyphs" textLength="149" x="1000.5" y="205.4189">load(IIniConfig ini, File file): void</text><ellipse cx="991.5" cy="214.8359" fill="#84BE84" rx="3" ry="3" style="stroke: #038048; stroke-width: 1.0;"/><text fill="#000000" font-family="sans-serif" font-size="11" lengthAdjust="spacingAndGlyphs" textLength="229" x="1000.5" y="219.2549">load(IIniConfig ini, BufferedReader reader): void</text><!--MD5=[cc079d348b4b231d20e36ac93bec3126]
class IniReaders--><rect fill="#FEFECE" filter="url(#fdra1hx5l7f61)" height="75.6719" id="IniReaders" style="stroke: #A80036; stroke-width: 1.5;" width="93" x="699.5" y="419"/><ellipse cx="714.5" cy="435" fill="#EB937F" rx="11" ry="11" style="stroke: #A80036; stroke-width: 1.0;"/><path d="M713,436 L713,438 L717,438 L717,437 L717,436.5156 L717.625,436 L718,436 L718.375,436 L719,436.5156 L719,437 L719,440 L711,440 L710.5156,440 L710,439.375 L710,439 L710,438.625 L710.5156,438 L711,438 L711,438 L711,432 L711,432 L710.5156,432 L710,431.375 L710,431 L710,430.625 L710.5156,430 L711,430 L719,430 L719,433 L719,433.4844 L718.375,434 L718,434 L717.625,434 L717,433.4844 L717,433 L717,432 L713,432 L713,434 L714,434 L714,433.5156 L714,433.5156 L714.625,433 L715,433 L715.375,433 L716,433.5156 L716,434 L716,436 L716,436.4844 L715.375,437 L715.375,437 L715,437 L714.625,437 L714,436.4844 L714,436.4844 L714,436 L713,436 Z "/><text fill="#000000" font-family="sans-serif" font-size="12" lengthAdjust="spacingAndGlyphs" textLength="61" x="728.5" y="439.9102">IniReaders</text><line style="stroke: #A80036; stroke-width: 1.5;" x1="700.5" x2="791.5" y1="451" y2="451"/><text fill="#000000" font-family="sans-serif" font-size="11" lengthAdjust="spacingAndGlyphs" textLength="20" x="705.5" y="466.4189">Fsm</text><text fill="#000000" font-family="sans-serif" font-size="11" lengthAdjust="spacingAndGlyphs" textLength="27" x="705.5" y="480.2549">Chain</text><line style="stroke: #A80036; stroke-width: 1.5;" x1="700.5" x2="791.5" y1="486.6719" y2="486.6719"/><!--MD5=[2a4d545028fdd4c5b7a931893a0f691d]
class FactoryReader--><rect fill="#FEFECE" filter="url(#fdra1hx5l7f61)" height="75.6719" id="FactoryReader" style="stroke: #A80036; stroke-width: 1.5;" width="225" x="702.5" y="150"/><ellipse cx="770.75" cy="166" fill="#ADD1B2" rx="11" ry="11" style="stroke: #A80036; stroke-width: 1.0;"/><path d="M772.75,162.5 Q772.9531,162 773.1875,161.75 Q773.4219,161.5 773.6875,161.5 Q774.1563,161.5 774.4531,161.7813 Q774.75,162.0625 774.75,162.7188 L774.75,164.2813 Q774.75,164.9375 774.4688,165.2188 Q774.1875,165.5 773.75,165.5 Q773.3594,165.5 773.1094,165.3281 Q772.8594,165.1563 772.75,164.7031 Q772.7031,164.3906 772.5313,164.2188 Q772.2188,163.8906 771.6563,163.7031 Q771.0938,163.5 770.5313,163.5 Q769.8281,163.5 769.2344,163.7813 Q768.6563,164.0625 768.2031,164.6875 Q767.75,165.3125 767.75,166.1719 L767.75,167.0938 Q767.75,168.125 768.5938,168.8125 Q769.4375,169.5 770.9375,169.5 Q771.8281,169.5 772.4531,169.2969 Q772.8125,169.1875 773.2188,168.8281 Q773.4844,168.625 773.625,168.5625 Q773.7656,168.5 773.9375,168.5 Q774.2656,168.5 774.5,168.7656 Q774.75,169.0156 774.75,169.375 Q774.75,169.7188 774.4063,170.125 Q773.9063,170.7188 773.1094,171.0469 Q772.0625,171.5 770.7813,171.5 Q769.2813,171.5 768.0781,170.9063 Q767.1094,170.4375 766.4219,169.4219 Q765.75,168.4063 765.75,167.2031 L765.75,166.1094 Q765.75,164.8594 766.3438,163.7656 Q766.9531,162.6719 768,162.0938 Q769.0625,161.5 770.25,161.5 Q770.9688,161.5 771.5938,161.75 Q772.2188,162 772.75,162.5 Z "/><text fill="#000000" font-family="sans-serif" font-size="12" lengthAdjust="spacingAndGlyphs" textLength="80" x="791.25" y="170.9102">FactoryReader</text><line style="stroke: #A80036; stroke-width: 1.5;" x1="703.5" x2="926.5" y1="182" y2="182"/><line style="stroke: #A80036; stroke-width: 1.5;" x1="703.5" x2="926.5" y1="190" y2="190"/><ellipse cx="713.5" cy="201" fill="#84BE84" rx="3" ry="3" style="stroke: #038048; stroke-width: 1.0;"/><text fill="#000000" font-family="sans-serif" font-size="11" lengthAdjust="spacingAndGlyphs" text-decoration="underline" textLength="199" x="722.5" y="205.4189">getIniReader(type: IniReaders): IIniReader</text><ellipse cx="713.5" cy="214.8359" fill="#84BE84" rx="3" ry="3" style="stroke: #038048; stroke-width: 1.0;"/><text fill="#000000" font-family="sans-serif" font-size="11" lengthAdjust="spacingAndGlyphs" text-decoration="underline" textLength="145" x="722.5" y="219.2549">getDefaultReader(): IIniReader</text><!--MD5=[563439ee67d54305ad279151e8d010f5]
class LineIniReader--><rect fill="#FEFECE" filter="url(#fdra1hx5l7f61)" height="48" id="LineIniReader" style="stroke: #A80036; stroke-width: 1.5;" width="110" x="828" y="433"/><ellipse cx="843" cy="449" fill="#ADD1B2" rx="11" ry="11" style="stroke: #A80036; stroke-width: 1.0;"/><path d="M845,445.5 Q845.2031,445 845.4375,444.75 Q845.6719,444.5 845.9375,444.5 Q846.4063,444.5 846.7031,444.7813 Q847,445.0625 847,445.7188 L847,447.2813 Q847,447.9375 846.7188,448.2188 Q846.4375,448.5 846,448.5 Q845.6094,448.5 845.3594,448.3281 Q845.1094,448.1563 845,447.7031 Q844.9531,447.3906 844.7813,447.2188 Q844.4688,446.8906 843.9063,446.7031 Q843.3438,446.5 842.7813,446.5 Q842.0781,446.5 841.4844,446.7813 Q840.9063,447.0625 840.4531,447.6875 Q840,448.3125 840,449.1719 L840,450.0938 Q840,451.125 840.8438,451.8125 Q841.6875,452.5 843.1875,452.5 Q844.0781,452.5 844.7031,452.2969 Q845.0625,452.1875 845.4688,451.8281 Q845.7344,451.625 845.875,451.5625 Q846.0156,451.5 846.1875,451.5 Q846.5156,451.5 846.75,451.7656 Q847,452.0156 847,452.375 Q847,452.7188 846.6563,453.125 Q846.1563,453.7188 845.3594,454.0469 Q844.3125,454.5 843.0313,454.5 Q841.5313,454.5 840.3281,453.9063 Q839.3594,453.4375 838.6719,452.4219 Q838,451.4063 838,450.2031 L838,449.1094 Q838,447.8594 838.5938,446.7656 Q839.2031,445.6719 840.25,445.0938 Q841.3125,444.5 842.5,444.5 Q843.2188,444.5 843.8438,444.75 Q844.4688,445 845,445.5 Z "/><text fill="#000000" font-family="sans-serif" font-size="12" lengthAdjust="spacingAndGlyphs" textLength="78" x="857" y="453.9102">LineIniReader</text><line style="stroke: #A80036; stroke-width: 1.5;" x1="829" x2="937" y1="465" y2="465"/><line style="stroke: #A80036; stroke-width: 1.5;" x1="829" x2="937" y1="473" y2="473"/><!--MD5=[cee1946a9afaaafc29e696c80b81882f]
class ChainOfResponsibilityIniReader--><rect fill="#FEFECE" filter="url(#fdra1hx5l7f61)" height="75.6719" id="ChainOfResponsibilityIniReader" style="stroke: #A80036; stroke-width: 1.5;" width="209" x="1021.5" y="419"/><ellipse cx="1036.5" cy="435" fill="#ADD1B2" rx="11" ry="11" style="stroke: #A80036; stroke-width: 1.0;"/><path d="M1038.5,431.5 Q1038.7031,431 1038.9375,430.75 Q1039.1719,430.5 1039.4375,430.5 Q1039.9063,430.5 1040.2031,430.7813 Q1040.5,431.0625 1040.5,431.7188 L1040.5,433.2813 Q1040.5,433.9375 1040.2188,434.2188 Q1039.9375,434.5 1039.5,434.5 Q1039.1094,434.5 1038.8594,434.3281 Q1038.6094,434.1563 1038.5,433.7031 Q1038.4531,433.3906 1038.2813,433.2188 Q1037.9688,432.8906 1037.4063,432.7031 Q1036.8438,432.5 1036.2813,432.5 Q1035.5781,432.5 1034.9844,432.7813 Q1034.4063,433.0625 1033.9531,433.6875 Q1033.5,434.3125 1033.5,435.1719 L1033.5,436.0938 Q1033.5,437.125 1034.3438,437.8125 Q1035.1875,438.5 1036.6875,438.5 Q1037.5781,438.5 1038.2031,438.2969 Q1038.5625,438.1875 1038.9688,437.8281 Q1039.2344,437.625 1039.375,437.5625 Q1039.5156,437.5 1039.6875,437.5 Q1040.0156,437.5 1040.25,437.7656 Q1040.5,438.0156 1040.5,438.375 Q1040.5,438.7188 1040.1563,439.125 Q1039.6563,439.7188 1038.8594,440.0469 Q1037.8125,440.5 1036.5313,440.5 Q1035.0313,440.5 1033.8281,439.9063 Q1032.8594,439.4375 1032.1719,438.4219 Q1031.5,437.4063 1031.5,436.2031 L1031.5,435.1094 Q1031.5,433.8594 1032.0938,432.7656 Q1032.7031,431.6719 1033.75,431.0938 Q1034.8125,430.5 1036,430.5 Q1036.7188,430.5 1037.3438,430.75 Q1037.9688,431 1038.5,431.5 Z "/><text fill="#000000" font-family="sans-serif" font-size="12" lengthAdjust="spacingAndGlyphs" textLength="177" x="1050.5" y="439.9102">ChainOfResponsibilityIniReader</text><line style="stroke: #A80036; stroke-width: 1.5;" x1="1022.5" x2="1229.5" y1="451" y2="451"/><rect fill="none" height="6" style="stroke: #C82930; stroke-width: 1.0;" width="6" x="1029.5" y="459"/><text fill="#000000" font-family="sans-serif" font-size="11" lengthAdjust="spacingAndGlyphs" textLength="160" x="1041.5" y="466.4189">processorChain: ProcessorChain</text><rect fill="none" height="6" style="stroke: #C82930; stroke-width: 1.0;" width="6" x="1029.5" y="472.8359"/><text fill="#000000" font-family="sans-serif" font-size="11" lengthAdjust="spacingAndGlyphs" textLength="131" x="1041.5" y="480.2549">contextState: IContextState</text><line style="stroke: #A80036; stroke-width: 1.5;" x1="1022.5" x2="1229.5" y1="486.6719" y2="486.6719"/><!--MD5=[df75b8422f2dd350dd9b990f6eb45890]
class ProcessorChain--><rect fill="#FEFECE" filter="url(#fdra1hx5l7f61)" height="75.6719" id="ProcessorChain" style="stroke: #A80036; stroke-width: 1.5;" width="264" x="994" y="562"/><ellipse cx="1076.75" cy="578" fill="#ADD1B2" rx="11" ry="11" style="stroke: #A80036; stroke-width: 1.0;"/><path d="M1078.75,574.5 Q1078.9531,574 1079.1875,573.75 Q1079.4219,573.5 1079.6875,573.5 Q1080.1563,573.5 1080.4531,573.7813 Q1080.75,574.0625 1080.75,574.7188 L1080.75,576.2813 Q1080.75,576.9375 1080.4688,577.2188 Q1080.1875,577.5 1079.75,577.5 Q1079.3594,577.5 1079.1094,577.3281 Q1078.8594,577.1563 1078.75,576.7031 Q1078.7031,576.3906 1078.5313,576.2188 Q1078.2188,575.8906 1077.6563,575.7031 Q1077.0938,575.5 1076.5313,575.5 Q1075.8281,575.5 1075.2344,575.7813 Q1074.6563,576.0625 1074.2031,576.6875 Q1073.75,577.3125 1073.75,578.1719 L1073.75,579.0938 Q1073.75,580.125 1074.5938,580.8125 Q1075.4375,581.5 1076.9375,581.5 Q1077.8281,581.5 1078.4531,581.2969 Q1078.8125,581.1875 1079.2188,580.8281 Q1079.4844,580.625 1079.625,580.5625 Q1079.7656,580.5 1079.9375,580.5 Q1080.2656,580.5 1080.5,580.7656 Q1080.75,581.0156 1080.75,581.375 Q1080.75,581.7188 1080.4063,582.125 Q1079.9063,582.7188 1079.1094,583.0469 Q1078.0625,583.5 1076.7813,583.5 Q1075.2813,583.5 1074.0781,582.9063 Q1073.1094,582.4375 1072.4219,581.4219 Q1071.75,580.4063 1071.75,579.2031 L1071.75,578.1094 Q1071.75,576.8594 1072.3438,575.7656 Q1072.9531,574.6719 1074,574.0938 Q1075.0625,573.5 1076.25,573.5 Q1076.9688,573.5 1077.5938,573.75 Q1078.2188,574 1078.75,574.5 Z "/><text fill="#000000" font-family="sans-serif" font-size="12" lengthAdjust="spacingAndGlyphs" textLength="90" x="1097.25" y="582.9102">ProcessorChain</text><line style="stroke: #A80036; stroke-width: 1.5;" x1="995" x2="1257" y1="594" y2="594"/><rect fill="none" height="6" style="stroke: #C82930; stroke-width: 1.0;" width="6" x="1002" y="602"/><text fill="#000000" font-family="sans-serif" font-size="11" lengthAdjust="spacingAndGlyphs" textLength="151" x="1014" y="609.4189">processor : AbstractProcessor</text><line style="stroke: #A80036; stroke-width: 1.5;" x1="995" x2="1257" y1="615.8359" y2="615.8359"/><ellipse cx="1005" cy="626.8359" fill="#84BE84" rx="3" ry="3" style="stroke: #038048; stroke-width: 1.0;"/><text fill="#000000" font-family="sans-serif" font-size="11" lengthAdjust="spacingAndGlyphs" textLength="238" x="1014" y="631.2549">processLine(IContextState state, String line): void</text><!--MD5=[70f9ef3d5706e94503c562422b5ef37e]
class IContextState--><rect fill="#FEFECE" filter="url(#fdra1hx5l7f61)" height="144.8516" id="IContextState" style="stroke: #A80036; stroke-width: 1.5;" width="235" x="1092.5" y="698"/><ellipse cx="1168.75" cy="714" fill="#B4A7E5" rx="11" ry="11" style="stroke: #A80036; stroke-width: 1.0;"/><path d="M1169.75,711 L1169.75,717 L1171.75,717 L1172.2344,717 L1172.75,717.625 L1172.75,718 L1172.75,718.375 L1172.2344,719 L1171.75,719 L1165.75,719 L1165.2656,719 L1164.75,718.375 L1164.75,718 L1164.75,717.625 L1165.2656,717 L1165.75,717 L1167.75,717 L1167.75,711 L1165.75,711 L1165.2656,711 L1164.75,710.375 L1164.75,710 L1164.75,709.625 L1165.2656,709 L1165.75,709 L1171.75,709 L1172.2344,709 L1172.75,709.625 L1172.75,710 L1172.75,710.375 L1172.2344,711 L1171.75,711 L1169.75,711 Z "/><text fill="#000000" font-family="sans-serif" font-size="12" font-style="italic" lengthAdjust="spacingAndGlyphs" textLength="74" x="1189.25" y="718.9102">IContextState</text><line style="stroke: #A80036; stroke-width: 1.5;" x1="1093.5" x2="1326.5" y1="730" y2="730"/><line style="stroke: #A80036; stroke-width: 1.5;" x1="1093.5" x2="1326.5" y1="738" y2="738"/><ellipse cx="1103.5" cy="749" fill="#84BE84" rx="3" ry="3" style="stroke: #038048; stroke-width: 1.0;"/><text fill="#000000" font-family="sans-serif" font-size="11" lengthAdjust="spacingAndGlyphs" textLength="163" x="1112.5" y="753.4189">addCommentLine(String line): void</text><ellipse cx="1103.5" cy="762.8359" fill="#84BE84" rx="3" ry="3" style="stroke: #038048; stroke-width: 1.0;"/><text fill="#000000" font-family="sans-serif" font-size="11" lengthAdjust="spacingAndGlyphs" textLength="128" x="1112.5" y="767.2549">setHeaderComment(): void</text><ellipse cx="1103.5" cy="776.6719" fill="#84BE84" rx="3" ry="3" style="stroke: #038048; stroke-width: 1.0;"/><text fill="#000000" font-family="sans-serif" font-size="11" lengthAdjust="spacingAndGlyphs" textLength="209" x="1112.5" y="781.0908">setActualSection(String sectionName): void</text><ellipse cx="1103.5" cy="790.5078" fill="#84BE84" rx="3" ry="3" style="stroke: #038048; stroke-width: 1.0;"/><text fill="#000000" font-family="sans-serif" font-size="11" lengthAdjust="spacingAndGlyphs" textLength="179" x="1112.5" y="794.9268">setItem(String key, String value): void</text><ellipse cx="1103.5" cy="804.3438" fill="#84BE84" rx="3" ry="3" style="stroke: #038048; stroke-width: 1.0;"/><text fill="#000000" font-family="sans-serif" font-size="11" lengthAdjust="spacingAndGlyphs" textLength="63" x="1112.5" y="808.7627">isError():void</text><ellipse cx="1103.5" cy="818.1797" fill="#84BE84" rx="3" ry="3" style="stroke: #038048; stroke-width: 1.0;"/><text fill="#000000" font-family="sans-serif" font-size="11" lengthAdjust="spacingAndGlyphs" textLength="189" x="1112.5" y="822.5986">setErrorMessage(String message):void</text><ellipse cx="1103.5" cy="832.0156" fill="#84BE84" rx="3" ry="3" style="stroke: #038048; stroke-width: 1.0;"/><text fill="#000000" font-family="sans-serif" font-size="11" lengthAdjust="spacingAndGlyphs" textLength="117" x="1112.5" y="836.4346">getErrorMessage(): void</text><!--MD5=[48ef30ae669ae7c6267650a3a5d7ee80]
class ContextState--><rect fill="#FEFECE" filter="url(#fdra1hx5l7f61)" height="48" id="ContextState" style="stroke: #A80036; stroke-width: 1.5;" width="101" x="1159.5" y="903"/><ellipse cx="1174.5" cy="919" fill="#ADD1B2" rx="11" ry="11" style="stroke: #A80036; stroke-width: 1.0;"/><path d="M1176.5,915.5 Q1176.7031,915 1176.9375,914.75 Q1177.1719,914.5 1177.4375,914.5 Q1177.9063,914.5 1178.2031,914.7813 Q1178.5,915.0625 1178.5,915.7188 L1178.5,917.2813 Q1178.5,917.9375 1178.2188,918.2188 Q1177.9375,918.5 1177.5,918.5 Q1177.1094,918.5 1176.8594,918.3281 Q1176.6094,918.1563 1176.5,917.7031 Q1176.4531,917.3906 1176.2813,917.2188 Q1175.9688,916.8906 1175.4063,916.7031 Q1174.8438,916.5 1174.2813,916.5 Q1173.5781,916.5 1172.9844,916.7813 Q1172.4063,917.0625 1171.9531,917.6875 Q1171.5,918.3125 1171.5,919.1719 L1171.5,920.0938 Q1171.5,921.125 1172.3438,921.8125 Q1173.1875,922.5 1174.6875,922.5 Q1175.5781,922.5 1176.2031,922.2969 Q1176.5625,922.1875 1176.9688,921.8281 Q1177.2344,921.625 1177.375,921.5625 Q1177.5156,921.5 1177.6875,921.5 Q1178.0156,921.5 1178.25,921.7656 Q1178.5,922.0156 1178.5,922.375 Q1178.5,922.7188 1178.1563,923.125 Q1177.6563,923.7188 1176.8594,924.0469 Q1175.8125,924.5 1174.5313,924.5 Q1173.0313,924.5 1171.8281,923.9063 Q1170.8594,923.4375 1170.1719,922.4219 Q1169.5,921.4063 1169.5,920.2031 L1169.5,919.1094 Q1169.5,917.8594 1170.0938,916.7656 Q1170.7031,915.6719 1171.75,915.0938 Q1172.8125,914.5 1174,914.5 Q1174.7188,914.5 1175.3438,914.75 Q1175.9688,915 1176.5,915.5 Z "/><text fill="#000000" font-family="sans-serif" font-size="12" lengthAdjust="spacingAndGlyphs" textLength="69" x="1188.5" y="923.9102">ContextState</text><line style="stroke: #A80036; stroke-width: 1.5;" x1="1160.5" x2="1259.5" y1="935" y2="935"/><line style="stroke: #A80036; stroke-width: 1.5;" x1="1160.5" x2="1259.5" y1="943" y2="943"/><!--MD5=[5fef5e4f35f84722c9edf52d5aa95e18]
class AbstractProcessor--><rect fill="#FEFECE" filter="url(#fdra1hx5l7f61)" height="89.5078" id="AbstractProcessor" style="stroke: #A80036; stroke-width: 1.5;" width="292" x="1575" y="412"/><ellipse cx="1666.75" cy="428" fill="#A9DCDF" rx="11" ry="11" style="stroke: #A80036; stroke-width: 1.0;"/><path d="M1668.5,429.5 L1665.2031,429.5 L1664.7656,430.5 L1664.7656,430.5 L1665.2344,430.5 L1665.75,431.125 L1665.75,431.5 L1665.75,431.875 L1665.2344,432.5 L1664.7656,432.5 L1662.875,432.5 L1662.2656,432.5 L1661.75,431.875 L1661.75,431.5 L1661.75,431.125 L1662.2656,430.5 L1662.875,430.5 L1665.1875,424.5 L1664.3125,424.5 L1663.2656,424.5 L1662.75,423.875 L1662.75,423.5 L1662.75,423.125 L1663.2656,422.5 L1664.3125,422.5 L1667.9844,422.5 L1670.6719,430.5 L1671.2344,430.5 L1671.2344,430.5 L1671.75,431.125 L1671.75,431.5 L1671.75,431.875 L1671.2344,432.5 L1670.6719,432.5 L1668.7813,432.5 L1668.2656,432.5 L1667.75,431.875 L1667.75,431.5 L1667.75,431.125 L1668.2656,430.5 L1668.7813,430.5 L1668.7813,430.5 L1668.5,429.5 Z M1667.9531,427.5 L1666.75,423.9219 L1665.7188,427.5 L1667.9531,427.5 Z "/><text fill="#000000" font-family="sans-serif" font-size="12" font-style="italic" lengthAdjust="spacingAndGlyphs" textLength="100" x="1687.25" y="432.9102">AbstractProcessor</text><line style="stroke: #A80036; stroke-width: 1.5;" x1="1576" x2="1866" y1="444" y2="444"/><polygon fill="none" points="1586,450,1590,454,1586,458,1582,454" style="stroke: #B38D22; stroke-width: 1.0;"/><text fill="#000000" font-family="sans-serif" font-size="11" lengthAdjust="spacingAndGlyphs" textLength="169" x="1595" y="459.4189">nextProcessor: AbstractProcessor</text><line style="stroke: #A80036; stroke-width: 1.5;" x1="1576" x2="1866" y1="465.8359" y2="465.8359"/><ellipse cx="1586" cy="476.8359" fill="#84BE84" rx="3" ry="3" style="stroke: #038048; stroke-width: 1.0;"/><text fill="#000000" font-family="sans-serif" font-size="11" lengthAdjust="spacingAndGlyphs" textLength="266" x="1595" y="481.2549">AbstractProcessor(AbstractProcessor nextProcessor)</text><ellipse cx="1586" cy="490.6719" fill="#84BE84" rx="3" ry="3" style="stroke: #038048; stroke-width: 1.0;"/><text fill="#000000" font-family="sans-serif" font-size="11" font-style="italic" lengthAdjust="spacingAndGlyphs" textLength="145" x="1595" y="495.0908">processLine(String line): void</text><!--MD5=[6a15394b06daa9685b3c35b7d32c7402]
class BlankProcessor--><rect fill="#FEFECE" filter="url(#fdra1hx5l7f61)" height="48" id="BlankProcessor" style="stroke: #A80036; stroke-width: 1.5;" width="120" x="1330" y="576"/><ellipse cx="1345" cy="592" fill="#ADD1B2" rx="11" ry="11" style="stroke: #A80036; stroke-width: 1.0;"/><path d="M1347,588.5 Q1347.2031,588 1347.4375,587.75 Q1347.6719,587.5 1347.9375,587.5 Q1348.4063,587.5 1348.7031,587.7813 Q1349,588.0625 1349,588.7188 L1349,590.2813 Q1349,590.9375 1348.7188,591.2188 Q1348.4375,591.5 1348,591.5 Q1347.6094,591.5 1347.3594,591.3281 Q1347.1094,591.1563 1347,590.7031 Q1346.9531,590.3906 1346.7813,590.2188 Q1346.4688,589.8906 1345.9063,589.7031 Q1345.3438,589.5 1344.7813,589.5 Q1344.0781,589.5 1343.4844,589.7813 Q1342.9063,590.0625 1342.4531,590.6875 Q1342,591.3125 1342,592.1719 L1342,593.0938 Q1342,594.125 1342.8438,594.8125 Q1343.6875,595.5 1345.1875,595.5 Q1346.0781,595.5 1346.7031,595.2969 Q1347.0625,595.1875 1347.4688,594.8281 Q1347.7344,594.625 1347.875,594.5625 Q1348.0156,594.5 1348.1875,594.5 Q1348.5156,594.5 1348.75,594.7656 Q1349,595.0156 1349,595.375 Q1349,595.7188 1348.6563,596.125 Q1348.1563,596.7188 1347.3594,597.0469 Q1346.3125,597.5 1345.0313,597.5 Q1343.5313,597.5 1342.3281,596.9063 Q1341.3594,596.4375 1340.6719,595.4219 Q1340,594.4063 1340,593.2031 L1340,592.1094 Q1340,590.8594 1340.5938,589.7656 Q1341.2031,588.6719 1342.25,588.0938 Q1343.3125,587.5 1344.5,587.5 Q1345.2188,587.5 1345.8438,587.75 Q1346.4688,588 1347,588.5 Z "/><text fill="#000000" font-family="sans-serif" font-size="12" lengthAdjust="spacingAndGlyphs" textLength="88" x="1359" y="596.9102">BlankProcessor</text><line style="stroke: #A80036; stroke-width: 1.5;" x1="1331" x2="1449" y1="608" y2="608"/><line style="stroke: #A80036; stroke-width: 1.5;" x1="1331" x2="1449" y1="616" y2="616"/><!--MD5=[91d272e5492bc932b72fbdde976c6c82]
class CommentProcessor--><rect fill="#FEFECE" filter="url(#fdra1hx5l7f61)" height="48" id="CommentProcessor" style="stroke: #A80036; stroke-width: 1.5;" width="144" x="1485" y="576"/><ellipse cx="1500" cy="592" fill="#ADD1B2" rx="11" ry="11" style="stroke: #A80036; stroke-width: 1.0;"/><path d="M1502,588.5 Q1502.2031,588 1502.4375,587.75 Q1502.6719,587.5 1502.9375,587.5 Q1503.4063,587.5 1503.7031,587.7813 Q1504,588.0625 1504,588.7188 L1504,590.2813 Q1504,590.9375 1503.7188,591.2188 Q1503.4375,591.5 1503,591.5 Q1502.6094,591.5 1502.3594,591.3281 Q1502.1094,591.1563 1502,590.7031 Q1501.9531,590.3906 1501.7813,590.2188 Q1501.4688,589.8906 1500.9063,589.7031 Q1500.3438,589.5 1499.7813,589.5 Q1499.0781,589.5 1498.4844,589.7813 Q1497.9063,590.0625 1497.4531,590.6875 Q1497,591.3125 1497,592.1719 L1497,593.0938 Q1497,594.125 1497.8438,594.8125 Q1498.6875,595.5 1500.1875,595.5 Q1501.0781,595.5 1501.7031,595.2969 Q1502.0625,595.1875 1502.4688,594.8281 Q1502.7344,594.625 1502.875,594.5625 Q1503.0156,594.5 1503.1875,594.5 Q1503.5156,594.5 1503.75,594.7656 Q1504,595.0156 1504,595.375 Q1504,595.7188 1503.6563,596.125 Q1503.1563,596.7188 1502.3594,597.0469 Q1501.3125,597.5 1500.0313,597.5 Q1498.5313,597.5 1497.3281,596.9063 Q1496.3594,596.4375 1495.6719,595.4219 Q1495,594.4063 1495,593.2031 L1495,592.1094 Q1495,590.8594 1495.5938,589.7656 Q1496.2031,588.6719 1497.25,588.0938 Q1498.3125,587.5 1499.5,587.5 Q1500.2188,587.5 1500.8438,587.75 Q1501.4688,588 1502,588.5 Z "/><text fill="#000000" font-family="sans-serif" font-size="12" lengthAdjust="spacingAndGlyphs" textLength="112" x="1514" y="596.9102">CommentProcessor</text><line style="stroke: #A80036; stroke-width: 1.5;" x1="1486" x2="1628" y1="608" y2="608"/><line style="stroke: #A80036; stroke-width: 1.5;" x1="1486" x2="1628" y1="616" y2="616"/><!--MD5=[e873b9cf33adbd0fdfdcf803530782e0]
class ItemProcessor--><rect fill="#FEFECE" filter="url(#fdra1hx5l7f61)" height="48" id="ItemProcessor" style="stroke: #A80036; stroke-width: 1.5;" width="113" x="1664.5" y="576"/><ellipse cx="1679.5" cy="592" fill="#ADD1B2" rx="11" ry="11" style="stroke: #A80036; stroke-width: 1.0;"/><path d="M1681.5,588.5 Q1681.7031,588 1681.9375,587.75 Q1682.1719,587.5 1682.4375,587.5 Q1682.9063,587.5 1683.2031,587.7813 Q1683.5,588.0625 1683.5,588.7188 L1683.5,590.2813 Q1683.5,590.9375 1683.2188,591.2188 Q1682.9375,591.5 1682.5,591.5 Q1682.1094,591.5 1681.8594,591.3281 Q1681.6094,591.1563 1681.5,590.7031 Q1681.4531,590.3906 1681.2813,590.2188 Q1680.9688,589.8906 1680.4063,589.7031 Q1679.8438,589.5 1679.2813,589.5 Q1678.5781,589.5 1677.9844,589.7813 Q1677.4063,590.0625 1676.9531,590.6875 Q1676.5,591.3125 1676.5,592.1719 L1676.5,593.0938 Q1676.5,594.125 1677.3438,594.8125 Q1678.1875,595.5 1679.6875,595.5 Q1680.5781,595.5 1681.2031,595.2969 Q1681.5625,595.1875 1681.9688,594.8281 Q1682.2344,594.625 1682.375,594.5625 Q1682.5156,594.5 1682.6875,594.5 Q1683.0156,594.5 1683.25,594.7656 Q1683.5,595.0156 1683.5,595.375 Q1683.5,595.7188 1683.1563,596.125 Q1682.6563,596.7188 1681.8594,597.0469 Q1680.8125,597.5 1679.5313,597.5 Q1678.0313,597.5 1676.8281,596.9063 Q1675.8594,596.4375 1675.1719,595.4219 Q1674.5,594.4063 1674.5,593.2031 L1674.5,592.1094 Q1674.5,590.8594 1675.0938,589.7656 Q1675.7031,588.6719 1676.75,588.0938 Q1677.8125,587.5 1679,587.5 Q1679.7188,587.5 1680.3438,587.75 Q1680.9688,588 1681.5,588.5 Z "/><text fill="#000000" font-family="sans-serif" font-size="12" lengthAdjust="spacingAndGlyphs" textLength="81" x="1693.5" y="596.9102">ItemProcessor</text><line style="stroke: #A80036; stroke-width: 1.5;" x1="1665.5" x2="1776.5" y1="608" y2="608"/><line style="stroke: #A80036; stroke-width: 1.5;" x1="1665.5" x2="1776.5" y1="616" y2="616"/><!--MD5=[55afbca7675f352bfcb2742fd71cf3ef]
class SectionProcessor--><rect fill="#FEFECE" filter="url(#fdra1hx5l7f61)" height="48" id="SectionProcessor" style="stroke: #A80036; stroke-width: 1.5;" width="130" x="1813" y="576"/><ellipse cx="1828" cy="592" fill="#ADD1B2" rx="11" ry="11" style="stroke: #A80036; stroke-width: 1.0;"/><path d="M1830,588.5 Q1830.2031,588 1830.4375,587.75 Q1830.6719,587.5 1830.9375,587.5 Q1831.4063,587.5 1831.7031,587.7813 Q1832,588.0625 1832,588.7188 L1832,590.2813 Q1832,590.9375 1831.7188,591.2188 Q1831.4375,591.5 1831,591.5 Q1830.6094,591.5 1830.3594,591.3281 Q1830.1094,591.1563 1830,590.7031 Q1829.9531,590.3906 1829.7813,590.2188 Q1829.4688,589.8906 1828.9063,589.7031 Q1828.3438,589.5 1827.7813,589.5 Q1827.0781,589.5 1826.4844,589.7813 Q1825.9063,590.0625 1825.4531,590.6875 Q1825,591.3125 1825,592.1719 L1825,593.0938 Q1825,594.125 1825.8438,594.8125 Q1826.6875,595.5 1828.1875,595.5 Q1829.0781,595.5 1829.7031,595.2969 Q1830.0625,595.1875 1830.4688,594.8281 Q1830.7344,594.625 1830.875,594.5625 Q1831.0156,594.5 1831.1875,594.5 Q1831.5156,594.5 1831.75,594.7656 Q1832,595.0156 1832,595.375 Q1832,595.7188 1831.6563,596.125 Q1831.1563,596.7188 1830.3594,597.0469 Q1829.3125,597.5 1828.0313,597.5 Q1826.5313,597.5 1825.3281,596.9063 Q1824.3594,596.4375 1823.6719,595.4219 Q1823,594.4063 1823,593.2031 L1823,592.1094 Q1823,590.8594 1823.5938,589.7656 Q1824.2031,588.6719 1825.25,588.0938 Q1826.3125,587.5 1827.5,587.5 Q1828.2188,587.5 1828.8438,587.75 Q1829.4688,588 1830,588.5 Z "/><text fill="#000000" font-family="sans-serif" font-size="12" lengthAdjust="spacingAndGlyphs" textLength="98" x="1842" y="596.9102">SectionProcessor</text><line style="stroke: #A80036; stroke-width: 1.5;" x1="1814" x2="1942" y1="608" y2="608"/><line style="stroke: #A80036; stroke-width: 1.5;" x1="1814" x2="1942" y1="616" y2="616"/><!--MD5=[c5273d06a5953da4381cfb15822289c8]
class InvalidStateProcessor--><rect fill="#FEFECE" filter="url(#fdra1hx5l7f61)" height="48" id="InvalidStateProcessor" style="stroke: #A80036; stroke-width: 1.5;" width="152" x="1978" y="576"/><ellipse cx="1993" cy="592" fill="#ADD1B2" rx="11" ry="11" style="stroke: #A80036; stroke-width: 1.0;"/><path d="M1995,588.5 Q1995.2031,588 1995.4375,587.75 Q1995.6719,587.5 1995.9375,587.5 Q1996.4063,587.5 1996.7031,587.7813 Q1997,588.0625 1997,588.7188 L1997,590.2813 Q1997,590.9375 1996.7188,591.2188 Q1996.4375,591.5 1996,591.5 Q1995.6094,591.5 1995.3594,591.3281 Q1995.1094,591.1563 1995,590.7031 Q1994.9531,590.3906 1994.7813,590.2188 Q1994.4688,589.8906 1993.9063,589.7031 Q1993.3438,589.5 1992.7813,589.5 Q1992.0781,589.5 1991.4844,589.7813 Q1990.9063,590.0625 1990.4531,590.6875 Q1990,591.3125 1990,592.1719 L1990,593.0938 Q1990,594.125 1990.8438,594.8125 Q1991.6875,595.5 1993.1875,595.5 Q1994.0781,595.5 1994.7031,595.2969 Q1995.0625,595.1875 1995.4688,594.8281 Q1995.7344,594.625 1995.875,594.5625 Q1996.0156,594.5 1996.1875,594.5 Q1996.5156,594.5 1996.75,594.7656 Q1997,595.0156 1997,595.375 Q1997,595.7188 1996.6563,596.125 Q1996.1563,596.7188 1995.3594,597.0469 Q1994.3125,597.5 1993.0313,597.5 Q1991.5313,597.5 1990.3281,596.9063 Q1989.3594,596.4375 1988.6719,595.4219 Q1988,594.4063 1988,593.2031 L1988,592.1094 Q1988,590.8594 1988.5938,589.7656 Q1989.2031,588.6719 1990.25,588.0938 Q1991.3125,587.5 1992.5,587.5 Q1993.2188,587.5 1993.8438,587.75 Q1994.4688,588 1995,588.5 Z "/><text fill="#000000" font-family="sans-serif" font-size="12" lengthAdjust="spacingAndGlyphs" textLength="120" x="2007" y="596.9102">InvalidStateProcessor</text><line style="stroke: #A80036; stroke-width: 1.5;" x1="1979" x2="2129" y1="608" y2="608"/><line style="stroke: #A80036; stroke-width: 1.5;" x1="1979" x2="2129" y1="616" y2="616"/><!--MD5=[5eac61a2d94cbc579982f053dcb6f991]
reverse link IIniConfig to CustomIIniConfig--><path d="M488.48,336.387 C487.448,363.949 486.445,390.713 485.651,411.91 " fill="none" id="IIniConfig&lt;-CustomIIniConfig" style="stroke: #A80036; stroke-width: 1.0; stroke-dasharray: 7.0,7.0;"/><polygon fill="none" points="481.491,335.968,489.234,316.244,495.481,336.492,481.491,335.968" style="stroke: #A80036; stroke-width: 1.0;"/><!--MD5=[af557095fde8c57060aac0fcd00bcf30]
reverse link IIniSection to CustomIIniSection--><path d="M205.624,286.063 C225,329.176 246.845,377.78 262.193,411.929 " fill="none" id="IIniSection&lt;-CustomIIniSection" style="stroke: #A80036; stroke-width: 1.0; stroke-dasharray: 7.0,7.0;"/><polygon fill="none" points="199.169,288.777,197.355,267.665,211.939,283.037,199.169,288.777" style="stroke: #A80036; stroke-width: 1.0;"/><!--MD5=[1e27797fef71de9c714b436bc9a1e879]
reverse link FactoryReader to IniReaders--><path d="M802.146,238.741 C788.655,290.943 767.756,371.812 755.624,418.761 " fill="none" id="FactoryReader&lt;-IniReaders" style="stroke: #A80036; stroke-width: 1.0;"/><polygon fill="#A80036" points="805.406,226.125,800.0319,230.9332,802.4032,237.7432,807.7773,232.935,805.406,226.125" style="stroke: #A80036; stroke-width: 1.0;"/><!--MD5=[31c5541f4ed770613efe2a6419204df9]
reverse link IIniReader to LineIniReader--><path d="M1055.01,240.527 C1030.69,265.047 1001.99,295.238 978,324 C947.617,360.427 916.199,405.891 898.189,432.843 " fill="none" id="IIniReader&lt;-LineIniReader" style="stroke: #A80036; stroke-width: 1.0; stroke-dasharray: 7.0,7.0;"/><polygon fill="none" points="1050.41,235.23,1069.51,226.056,1060.3,245.139,1050.41,235.23" style="stroke: #A80036; stroke-width: 1.0;"/><!--MD5=[bd8766065f9740ab6160ab64c70aabb2]
reverse link IIniReader to ChainOfResponsibilityIniReader--><path d="M1111.86,246.221 C1115.38,298.408 1120.47,374 1123.49,418.761 " fill="none" id="IIniReader&lt;-ChainOfResponsibilityIniReader" style="stroke: #A80036; stroke-width: 1.0; stroke-dasharray: 7.0,7.0;"/><polygon fill="none" points="1104.86,246.551,1110.5,226.125,1118.83,245.609,1104.86,246.551" style="stroke: #A80036; stroke-width: 1.0;"/><!--MD5=[e913199b3290fc7f5eabed4b4948f17e]
reverse link ProcessorChain to IContextState--><path d="M1150.64,650.431 C1158.06,665.313 1166.36,681.954 1174.34,697.968 " fill="none" id="ProcessorChain&lt;-IContextState" style="stroke: #A80036; stroke-width: 1.0;"/><polygon fill="#FFFFFF" points="1144.64,638.396,1143.7385,645.5505,1149.996,649.1344,1150.8975,641.9799,1144.64,638.396" style="stroke: #A80036; stroke-width: 1.0;"/><!--MD5=[119d5c1537a64bb44d1169e34719dfb3]
reverse link ChainOfResponsibilityIniReader to ProcessorChain--><path d="M1126,508.105 C1126,525.766 1126,545.296 1126,561.712 " fill="none" id="ChainOfResponsibilityIniReader&lt;-ProcessorChain" style="stroke: #A80036; stroke-width: 1.0;"/><polygon fill="#A80036" points="1126,495.046,1122,501.046,1126,507.046,1130,501.046,1126,495.046" style="stroke: #A80036; stroke-width: 1.0;"/><!--MD5=[424085a8a8bb4e40a74e8c21a0a2126c]
reverse link ChainOfResponsibilityIniReader to IContextState--><path d="M1218.64,502.423 C1241.13,517.952 1262.34,537.722 1275,562 C1297.34,604.844 1281.09,656.719 1259.26,697.883 " fill="none" id="ChainOfResponsibilityIniReader&lt;-IContextState" style="stroke: #A80036; stroke-width: 1.0;"/><polygon fill="#A80036" points="1207.52,495.14,1210.3449,501.7747,1217.5558,501.7189,1214.7309,495.0842,1207.52,495.14" style="stroke: #A80036; stroke-width: 1.0;"/><!--MD5=[acf08c02252875bcdcd83e318bc46ba1]
reverse link IContextState to ContextState--><path d="M1210,863.378 C1210,877.909 1210,891.723 1210,902.661 " fill="none" id="IContextState&lt;-ContextState" style="stroke: #A80036; stroke-width: 1.0; stroke-dasharray: 7.0,7.0;"/><polygon fill="none" points="1203,863.322,1210,843.322,1217,863.322,1203,863.322" style="stroke: #A80036; stroke-width: 1.0;"/><!--MD5=[12f43abeade175a000d7dd0deb42bc23]
reverse link AbstractProcessor to BlankProcessor--><path d="M1608.75,510.24 C1596.08,515.729 1583.31,521.09 1571,526 C1525.57,544.117 1512.23,543.377 1467,562 C1456.85,566.179 1446.14,571.033 1436.03,575.824 " fill="none" id="AbstractProcessor&lt;-BlankProcessor" style="stroke: #A80036; stroke-width: 1.0;"/><polygon fill="none" points="1606.03,503.79,1627.15,502.145,1611.66,516.605,1606.03,503.79" style="stroke: #A80036; stroke-width: 1.0;"/><!--MD5=[dd5e26734c07053b2e7b56ef344c2fb5]
reverse link AbstractProcessor to CommentProcessor--><path d="M1654.16,515.465 C1629.55,536.623 1603.05,559.405 1583.96,575.824 " fill="none" id="AbstractProcessor&lt;-CommentProcessor" style="stroke: #A80036; stroke-width: 1.0;"/><polygon fill="none" points="1649.83,509.957,1669.56,502.226,1658.96,520.573,1649.83,509.957" style="stroke: #A80036; stroke-width: 1.0;"/><!--MD5=[ef337c2a688412db1061cfb4fdda518f]
reverse link AbstractProcessor to ItemProcessor--><path d="M1721,522.432 C1721,541.514 1721,561.195 1721,575.824 " fill="none" id="AbstractProcessor&lt;-ItemProcessor" style="stroke: #A80036; stroke-width: 1.0;"/><polygon fill="none" points="1714,522.226,1721,502.226,1728,522.226,1714,522.226" style="stroke: #A80036; stroke-width: 1.0;"/><!--MD5=[7fe82bf22c8d062cab5bd75aec734ba9]
reverse link AbstractProcessor to SectionProcessor--><path d="M1785.32,515.766 C1808.79,536.839 1834,559.483 1852.19,575.824 " fill="none" id="AbstractProcessor&lt;-SectionProcessor" style="stroke: #A80036; stroke-width: 1.0;"/><polygon fill="none" points="1780.45,520.798,1770.25,502.226,1789.8,510.382,1780.45,520.798" style="stroke: #A80036; stroke-width: 1.0;"/><!--MD5=[7c62abe109013d1f04bb9085d92e8a52]
reverse link AbstractProcessor to InvalidStateProcessor--><path d="M1843.64,509.929 C1897.24,532.626 1957.38,558.088 1999.58,575.957 " fill="none" id="AbstractProcessor&lt;-InvalidStateProcessor" style="stroke: #A80036; stroke-width: 1.0;"/><polygon fill="none" points="1840.68,516.278,1824.99,502.033,1846.14,503.386,1840.68,516.278" style="stroke: #A80036; stroke-width: 1.0;"/><!--MD5=[60aa9522566de27ebe3068428b98923b]
@startuml



package ini {
    interface IIniConfig {
        + getSection(String sectionName): IIniSection
        + getValue(String sectionName, String key): String
        + hasItem(String sectionName, String key): boolean
        + hasSection(String sectionName): boolean
        + load(File file): void
        + load(BufferedReader reader): void
        + store(File file): void
        + putSectionComment(String sectionName, String comment): void
        + putComment(String sectionName, String key, String comment): void
        + putHeaderComment(String comment): void
        + getSectionComment(String sectionName): String
        + getComment(String sectionName, String key): String
        + getHeaderComment(): String
        + putValue(String sectionName, String key, String value):void
        + toString(): String
    }

    interface IIniSection {
        + getValue(String key): String
        + hasItem(String key): boolean
        + putValue(String key, String value): void
        + putComment(String key, String comment): void
        + putSectionComment(String comment): void
        + getComment(String key): String
        + getSectionComment(): String
        + toString(): String
    }

    package myini {
        class CustomIIniConfig implements IIniConfig {
            - headerComment : String
            - sections : Map<String, IIniSection>
            - loader : IIniReader
        }
        class CustomIIniSection implements IIniSection {
            - name : String
            - comment : String
            - items : List<CustomItem>
        }
        class CustomItem {
            - key: String
            - value: String
            - comment: String
        }
    }

    package inireaders {
        interface IIniReader {
            + load(IIniConfig ini, File file): void
            + load(IIniConfig ini, BufferedReader reader): void
        }

        enum IniReaders {
            Fsm
            Chain
        }

        class FactoryReader {
            +{static} getIniReader(type: IniReaders): IIniReader
            +{static} getDefaultReader(): IIniReader
        }

        FactoryReader *- - IniReaders

        package fsm {
            class LineIniReader implements IIniReader {
            }
        }

        package chain {
            class ChainOfResponsibilityIniReader implements IIniReader {
                - processorChain: ProcessorChain
                - contextState: IContextState
            }
            class ProcessorChain {
                - processor : AbstractProcessor
                + processLine(IContextState state, String line): void
            }

            ProcessorChain o- - IContextState
            ChainOfResponsibilityIniReader *- - ProcessorChain
            ChainOfResponsibilityIniReader *- - IContextState

            interface IContextState {
                + addCommentLine(String line): void
                + setHeaderComment(): void
                + setActualSection(String sectionName): void
                + setItem(String key, String value): void
                + isError():void
                + setErrorMessage(String message):void
                + getErrorMessage(): void
            }

            class ContextState implements IContextState {
            }

            package processors {
                abstract class AbstractProcessor {
                    #nextProcessor: AbstractProcessor
                    +AbstractProcessor(AbstractProcessor nextProcessor)
                    +{abstract} processLine(String line): void
                }
                class BlankProcessor extends AbstractProcessor {
                }
                class CommentProcessor extends AbstractProcessor {
                }
                class ItemProcessor extends AbstractProcessor {
                }
                class SectionProcessor extends AbstractProcessor {
                }
                class InvalidStateProcessor extends AbstractProcessor {
                }
            }
        }

    }


}


@enduml

PlantUML version 1.2019.11(Sun Sep 22 12:02:15 CEST 2019)
(GPL source distribution)
Java Runtime: OpenJDK Runtime Environment
JVM: OpenJDK 64-Bit Server VM
Java Version: 11.0.4+10-b304.77
Operating System: Windows 10
Default Encoding: Cp1252
Language: en
Country: US
--></g></svg>