<?xml version="1.0" encoding="UTF-8" standalone="no"?><svg xmlns="http://www.w3.org/2000/svg" xmlns:xlink="http://www.w3.org/1999/xlink" contentScriptType="application/ecmascript" contentStyleType="text/css" height="465px" preserveAspectRatio="none" style="width:908px;height:465px;" version="1.1" viewBox="0 0 908 465" width="908px" zoomAndPan="magnify"><defs><filter height="300%" id="f6m3guoieyyix" width="300%" x="-1" y="-1"><feGaussianBlur result="blurOut" stdDeviation="2.0"/><feColorMatrix in="blurOut" result="blurOut2" type="matrix" values="0 0 0 0 0 0 0 0 0 0 0 0 0 0 0 0 0 0 .4 0"/><feOffset dx="4.0" dy="4.0" in="blurOut2" result="blurOut3"/><feBlend in="SourceGraphic" in2="blurOut3" mode="normal"/></filter></defs><g><!--MD5=[86cbce8df1eb9d604fbbb2fa357940f8]
cluster view--><polygon fill="#FFFFFF" filter="url(#f6m3guoieyyix)" points="22,148,61,148,68,171.6094,718,171.6094,718,453,22,453,22,148" style="stroke: #000000; stroke-width: 1.5;"/><line style="stroke: #000000; stroke-width: 1.5;" x1="22" x2="68" y1="171.6094" y2="171.6094"/><text fill="#000000" font-family="sans-serif" font-size="14" font-weight="bold" lengthAdjust="spacingAndGlyphs" textLength="33" x="26" y="164.5332">view</text><!--MD5=[5279207ee492583aa49eaecd38fb0f37]
cluster photos.downloaders--><polygon fill="#FFFFFF" filter="url(#f6m3guoieyyix)" points="84,24,234,24,241,47.6094,244,47.6094,244,124,84,124,84,24" style="stroke: #000000; stroke-width: 1.5;"/><line style="stroke: #000000; stroke-width: 1.5;" x1="84" x2="241" y1="47.6094" y2="47.6094"/><text fill="#000000" font-family="sans-serif" font-size="14" font-weight="bold" lengthAdjust="spacingAndGlyphs" textLength="144" x="88" y="40.5332">photos.downloaders</text><!--MD5=[e64e40e2f8a522f5cd0ae1f446f20b5d]
cluster photos--><polygon fill="#FFFFFF" filter="url(#f6m3guoieyyix)" points="742,339,797,339,804,362.6094,886,362.6094,886,439,742,439,742,339" style="stroke: #000000; stroke-width: 1.5;"/><line style="stroke: #000000; stroke-width: 1.5;" x1="742" x2="804" y1="362.6094" y2="362.6094"/><text fill="#000000" font-family="sans-serif" font-size="14" font-weight="bold" lengthAdjust="spacingAndGlyphs" textLength="49" x="746" y="355.5332">photos</text><!--MD5=[874877035222f5bcc888af269290427c]
class IView--><rect fill="#FEFECE" filter="url(#f6m3guoieyyix)" height="117.1797" id="IView" style="stroke: #A80036; stroke-width: 1.5;" width="251" x="38.5" y="184"/><ellipse cx="144.75" cy="200" fill="#B4A7E5" rx="11" ry="11" style="stroke: #A80036; stroke-width: 1.0;"/><path d="M145.75,197 L145.75,203 L147.75,203 L148.2344,203 L148.75,203.625 L148.75,204 L148.75,204.375 L148.2344,205 L147.75,205 L141.75,205 L141.2656,205 L140.75,204.375 L140.75,204 L140.75,203.625 L141.2656,203 L141.75,203 L143.75,203 L143.75,197 L141.75,197 L141.2656,197 L140.75,196.375 L140.75,196 L140.75,195.625 L141.2656,195 L141.75,195 L147.75,195 L148.2344,195 L148.75,195.625 L148.75,196 L148.75,196.375 L148.2344,197 L147.75,197 L145.75,197 Z "/><text fill="#000000" font-family="sans-serif" font-size="12" font-style="italic" lengthAdjust="spacingAndGlyphs" textLength="30" x="165.25" y="204.9102">IView</text><line style="stroke: #A80036; stroke-width: 1.5;" x1="39.5" x2="288.5" y1="216" y2="216"/><line style="stroke: #A80036; stroke-width: 1.5;" x1="39.5" x2="288.5" y1="224" y2="224"/><ellipse cx="49.5" cy="235" fill="#84BE84" rx="3" ry="3" style="stroke: #038048; stroke-width: 1.0;"/><text fill="#000000" font-family="sans-serif" font-size="11" lengthAdjust="spacingAndGlyphs" textLength="189" x="58.5" y="239.4189">setController(Controller controller): void</text><ellipse cx="49.5" cy="248.8359" fill="#84BE84" rx="3" ry="3" style="stroke: #038048; stroke-width: 1.0;"/><text fill="#000000" font-family="sans-serif" font-size="11" lengthAdjust="spacingAndGlyphs" textLength="164" x="58.5" y="253.2549">setLocalFolder(String folder): void</text><ellipse cx="49.5" cy="262.6719" fill="#84BE84" rx="3" ry="3" style="stroke: #038048; stroke-width: 1.0;"/><text fill="#000000" font-family="sans-serif" font-size="11" lengthAdjust="spacingAndGlyphs" textLength="202" x="58.5" y="267.0908">setConfigurationFilePath(String path): void</text><ellipse cx="49.5" cy="276.5078" fill="#84BE84" rx="3" ry="3" style="stroke: #038048; stroke-width: 1.0;"/><text fill="#000000" font-family="sans-serif" font-size="11" lengthAdjust="spacingAndGlyphs" textLength="225" x="58.5" y="280.9268">setStatus(Status status, String message): void</text><ellipse cx="49.5" cy="290.3438" fill="#84BE84" rx="3" ry="3" style="stroke: #038048; stroke-width: 1.0;"/><text fill="#000000" font-family="sans-serif" font-size="11" lengthAdjust="spacingAndGlyphs" textLength="82" x="58.5" y="294.7627">startView(): void</text><!--MD5=[1d7ba1c7002d54515419844fbd155368]
class Controller--><rect fill="#FEFECE" filter="url(#f6m3guoieyyix)" height="117.1797" id="Controller" style="stroke: #A80036; stroke-width: 1.5;" width="377" x="324.5" y="184"/><ellipse cx="481.75" cy="200" fill="#ADD1B2" rx="11" ry="11" style="stroke: #A80036; stroke-width: 1.0;"/><path d="M483.75,196.5 Q483.9531,196 484.1875,195.75 Q484.4219,195.5 484.6875,195.5 Q485.1563,195.5 485.4531,195.7813 Q485.75,196.0625 485.75,196.7188 L485.75,198.2813 Q485.75,198.9375 485.4688,199.2188 Q485.1875,199.5 484.75,199.5 Q484.3594,199.5 484.1094,199.3281 Q483.8594,199.1563 483.75,198.7031 Q483.7031,198.3906 483.5313,198.2188 Q483.2188,197.8906 482.6563,197.7031 Q482.0938,197.5 481.5313,197.5 Q480.8281,197.5 480.2344,197.7813 Q479.6563,198.0625 479.2031,198.6875 Q478.75,199.3125 478.75,200.1719 L478.75,201.0938 Q478.75,202.125 479.5938,202.8125 Q480.4375,203.5 481.9375,203.5 Q482.8281,203.5 483.4531,203.2969 Q483.8125,203.1875 484.2188,202.8281 Q484.4844,202.625 484.625,202.5625 Q484.7656,202.5 484.9375,202.5 Q485.2656,202.5 485.5,202.7656 Q485.75,203.0156 485.75,203.375 Q485.75,203.7188 485.4063,204.125 Q484.9063,204.7188 484.1094,205.0469 Q483.0625,205.5 481.7813,205.5 Q480.2813,205.5 479.0781,204.9063 Q478.1094,204.4375 477.4219,203.4219 Q476.75,202.4063 476.75,201.2031 L476.75,200.1094 Q476.75,198.8594 477.3438,197.7656 Q477.9531,196.6719 479,196.0938 Q480.0625,195.5 481.25,195.5 Q481.9688,195.5 482.5938,195.75 Q483.2188,196 483.75,196.5 Z "/><text fill="#000000" font-family="sans-serif" font-size="12" lengthAdjust="spacingAndGlyphs" textLength="54" x="502.25" y="204.9102">Controller</text><line style="stroke: #A80036; stroke-width: 1.5;" x1="325.5" x2="700.5" y1="216" y2="216"/><rect fill="none" height="6" style="stroke: #C82930; stroke-width: 1.0;" width="6" x="332.5" y="224"/><text fill="#000000" font-family="sans-serif" font-size="11" lengthAdjust="spacingAndGlyphs" textLength="58" x="344.5" y="231.4189">view: IView</text><rect fill="none" height="6" style="stroke: #C82930; stroke-width: 1.0;" width="6" x="332.5" y="237.8359"/><text fill="#000000" font-family="sans-serif" font-size="11" lengthAdjust="spacingAndGlyphs" textLength="112" x="344.5" y="245.2549">gPhotos: GooglePhotos</text><line style="stroke: #A80036; stroke-width: 1.5;" x1="325.5" x2="700.5" y1="251.6719" y2="251.6719"/><ellipse cx="335.5" cy="262.6719" fill="#84BE84" rx="3" ry="3" style="stroke: #038048; stroke-width: 1.0;"/><text fill="#000000" font-family="sans-serif" font-size="11" lengthAdjust="spacingAndGlyphs" textLength="130" x="344.5" y="267.0908">setView(IView view): void</text><ellipse cx="335.5" cy="276.5078" fill="#84BE84" rx="3" ry="3" style="stroke: #038048; stroke-width: 1.0;"/><text fill="#000000" font-family="sans-serif" font-size="11" lengthAdjust="spacingAndGlyphs" textLength="351" x="344.5" y="280.9268">startDownloadingPhotos(String configurationFile, String localFolder): void</text><ellipse cx="335.5" cy="290.3438" fill="#84BE84" rx="3" ry="3" style="stroke: #038048; stroke-width: 1.0;"/><text fill="#000000" font-family="sans-serif" font-size="11" lengthAdjust="spacingAndGlyphs" textLength="151" x="344.5" y="294.7627">stopDownloadingPhotos(): void</text><!--MD5=[51d729737bd84a4c43136dd336c2eea1]
class ConsoleView--><rect fill="#FEFECE" filter="url(#f6m3guoieyyix)" height="48" id="ConsoleView" style="stroke: #A80036; stroke-width: 1.5;" width="105" x="406.5" y="375"/><ellipse cx="421.5" cy="391" fill="#ADD1B2" rx="11" ry="11" style="stroke: #A80036; stroke-width: 1.0;"/><path d="M423.5,387.5 Q423.7031,387 423.9375,386.75 Q424.1719,386.5 424.4375,386.5 Q424.9063,386.5 425.2031,386.7813 Q425.5,387.0625 425.5,387.7188 L425.5,389.2813 Q425.5,389.9375 425.2188,390.2188 Q424.9375,390.5 424.5,390.5 Q424.1094,390.5 423.8594,390.3281 Q423.6094,390.1563 423.5,389.7031 Q423.4531,389.3906 423.2813,389.2188 Q422.9688,388.8906 422.4063,388.7031 Q421.8438,388.5 421.2813,388.5 Q420.5781,388.5 419.9844,388.7813 Q419.4063,389.0625 418.9531,389.6875 Q418.5,390.3125 418.5,391.1719 L418.5,392.0938 Q418.5,393.125 419.3438,393.8125 Q420.1875,394.5 421.6875,394.5 Q422.5781,394.5 423.2031,394.2969 Q423.5625,394.1875 423.9688,393.8281 Q424.2344,393.625 424.375,393.5625 Q424.5156,393.5 424.6875,393.5 Q425.0156,393.5 425.25,393.7656 Q425.5,394.0156 425.5,394.375 Q425.5,394.7188 425.1563,395.125 Q424.6563,395.7188 423.8594,396.0469 Q422.8125,396.5 421.5313,396.5 Q420.0313,396.5 418.8281,395.9063 Q417.8594,395.4375 417.1719,394.4219 Q416.5,393.4063 416.5,392.2031 L416.5,391.1094 Q416.5,389.8594 417.0938,388.7656 Q417.7031,387.6719 418.75,387.0938 Q419.8125,386.5 421,386.5 Q421.7188,386.5 422.3438,386.75 Q422.9688,387 423.5,387.5 Z "/><text fill="#000000" font-family="sans-serif" font-size="12" lengthAdjust="spacingAndGlyphs" textLength="73" x="435.5" y="395.9102">ConsoleView</text><line style="stroke: #A80036; stroke-width: 1.5;" x1="407.5" x2="510.5" y1="407" y2="407"/><line style="stroke: #A80036; stroke-width: 1.5;" x1="407.5" x2="510.5" y1="415" y2="415"/><path d="M546.5,386 L546.5,395 L511.711,399 L546.5,403 L546.5,412.3516 A0,0 0 0 0 546.5,412.3516 L683.5,412.3516 A0,0 0 0 0 683.5,412.3516 L683.5,396 L673.5,386 L546.5,386 A0,0 0 0 0 546.5,386 " fill="#FBFB77" filter="url(#f6m3guoieyyix)" style="stroke: #A80036; stroke-width: 1.0;"/><path d="M673.5,386 L673.5,396 L683.5,396 L673.5,386 " fill="#FBFB77" style="stroke: #A80036; stroke-width: 1.0;"/><text fill="#000000" font-family="sans-serif" font-size="13" lengthAdjust="spacingAndGlyphs" textLength="116" x="552.5" y="404.4951">Just the app logging</text><!--MD5=[ca8ccf49f5b38c2cb68c638a4c0480aa]
class SwingView--><rect fill="#FEFECE" filter="url(#f6m3guoieyyix)" height="75.6719" id="SwingView" style="stroke: #A80036; stroke-width: 1.5;" width="123" x="248.5" y="361"/><ellipse cx="277.45" cy="377" fill="#ADD1B2" rx="11" ry="11" style="stroke: #A80036; stroke-width: 1.0;"/><path d="M279.45,373.5 Q279.6531,373 279.8875,372.75 Q280.1219,372.5 280.3875,372.5 Q280.8563,372.5 281.1531,372.7813 Q281.45,373.0625 281.45,373.7188 L281.45,375.2813 Q281.45,375.9375 281.1688,376.2188 Q280.8875,376.5 280.45,376.5 Q280.0594,376.5 279.8094,376.3281 Q279.5594,376.1563 279.45,375.7031 Q279.4031,375.3906 279.2313,375.2188 Q278.9188,374.8906 278.3563,374.7031 Q277.7938,374.5 277.2313,374.5 Q276.5281,374.5 275.9344,374.7813 Q275.3563,375.0625 274.9031,375.6875 Q274.45,376.3125 274.45,377.1719 L274.45,378.0938 Q274.45,379.125 275.2938,379.8125 Q276.1375,380.5 277.6375,380.5 Q278.5281,380.5 279.1531,380.2969 Q279.5125,380.1875 279.9188,379.8281 Q280.1844,379.625 280.325,379.5625 Q280.4656,379.5 280.6375,379.5 Q280.9656,379.5 281.2,379.7656 Q281.45,380.0156 281.45,380.375 Q281.45,380.7188 281.1063,381.125 Q280.6063,381.7188 279.8094,382.0469 Q278.7625,382.5 277.4813,382.5 Q275.9813,382.5 274.7781,381.9063 Q273.8094,381.4375 273.1219,380.4219 Q272.45,379.4063 272.45,378.2031 L272.45,377.1094 Q272.45,375.8594 273.0438,374.7656 Q273.6531,373.6719 274.7,373.0938 Q275.7625,372.5 276.95,372.5 Q277.6688,372.5 278.2938,372.75 Q278.9188,373 279.45,373.5 Z "/><text fill="#000000" font-family="sans-serif" font-size="12" lengthAdjust="spacingAndGlyphs" textLength="60" x="294.55" y="381.9102">SwingView</text><line style="stroke: #A80036; stroke-width: 1.5;" x1="249.5" x2="370.5" y1="393" y2="393"/><rect fill="none" height="6" style="stroke: #C82930; stroke-width: 1.0;" width="6" x="256.5" y="401"/><text fill="#000000" font-family="sans-serif" font-size="11" lengthAdjust="spacingAndGlyphs" textLength="69" x="268.5" y="408.4189">frame: JFrame</text><rect fill="none" height="6" style="stroke: #C82930; stroke-width: 1.0;" width="6" x="256.5" y="414.8359"/><text fill="#000000" font-family="sans-serif" font-size="11" lengthAdjust="spacingAndGlyphs" textLength="97" x="268.5" y="422.2549">controller: Controller</text><line style="stroke: #A80036; stroke-width: 1.5;" x1="249.5" x2="370.5" y1="428.6719" y2="428.6719"/><path d="M38.5,361.5 L38.5,436.9063 A0,0 0 0 0 38.5,436.9063 L213.5,436.9063 A0,0 0 0 0 213.5,436.9063 L213.5,403 L248.3,399 L213.5,395 L213.5,371.5 L203.5,361.5 L38.5,361.5 A0,0 0 0 0 38.5,361.5 " fill="#FBFB77" filter="url(#f6m3guoieyyix)" style="stroke: #A80036; stroke-width: 1.0;"/><path d="M203.5,361.5 L203.5,371.5 L213.5,371.5 L203.5,361.5 " fill="#FBFB77" style="stroke: #A80036; stroke-width: 1.0;"/><text fill="#000000" font-family="sans-serif" font-size="13" lengthAdjust="spacingAndGlyphs" textLength="102" x="44.5" y="379.9951">Swing framework:</text><text fill="#000000" font-family="sans-serif" font-size="13" lengthAdjust="spacingAndGlyphs" textLength="74" x="60.5" y="396.3467">progressBar,</text><text fill="#000000" font-family="sans-serif" font-size="13" lengthAdjust="spacingAndGlyphs" textLength="60" x="60.5" y="412.6982">statusBar,</text><text fill="#000000" font-family="sans-serif" font-size="13" lengthAdjust="spacingAndGlyphs" textLength="138" x="60.5" y="429.0498">stopDownloading button</text><!--MD5=[f7c05dbbe973924b4bfb940e9e6c838a]
class photos.downloaders.IObserver--><rect fill="#FEFECE" filter="url(#f6m3guoieyyix)" height="48" id="photos.downloaders.IObserver" style="stroke: #A80036; stroke-width: 1.5;" width="87" x="120.5" y="60"/><ellipse cx="135.5" cy="76" fill="#B4A7E5" rx="11" ry="11" style="stroke: #A80036; stroke-width: 1.0;"/><path d="M136.5,73 L136.5,79 L138.5,79 L138.9844,79 L139.5,79.625 L139.5,80 L139.5,80.375 L138.9844,81 L138.5,81 L132.5,81 L132.0156,81 L131.5,80.375 L131.5,80 L131.5,79.625 L132.0156,79 L132.5,79 L134.5,79 L134.5,73 L132.5,73 L132.0156,73 L131.5,72.375 L131.5,72 L131.5,71.625 L132.0156,71 L132.5,71 L138.5,71 L138.9844,71 L139.5,71.625 L139.5,72 L139.5,72.375 L138.9844,73 L138.5,73 L136.5,73 Z "/><text fill="#000000" font-family="sans-serif" font-size="12" font-style="italic" lengthAdjust="spacingAndGlyphs" textLength="55" x="149.5" y="80.9102">IObserver</text><line style="stroke: #A80036; stroke-width: 1.5;" x1="121.5" x2="206.5" y1="92" y2="92"/><line style="stroke: #A80036; stroke-width: 1.5;" x1="121.5" x2="206.5" y1="100" y2="100"/><!--MD5=[0c4296b4044e36297ed099b3acec349b]
class photos.GooglePhotos--><rect fill="#FEFECE" filter="url(#f6m3guoieyyix)" height="48" id="photos.GooglePhotos" style="stroke: #A80036; stroke-width: 1.5;" width="111" x="758.5" y="375"/><ellipse cx="773.5" cy="391" fill="#ADD1B2" rx="11" ry="11" style="stroke: #A80036; stroke-width: 1.0;"/><path d="M775.5,387.5 Q775.7031,387 775.9375,386.75 Q776.1719,386.5 776.4375,386.5 Q776.9063,386.5 777.2031,386.7813 Q777.5,387.0625 777.5,387.7188 L777.5,389.2813 Q777.5,389.9375 777.2188,390.2188 Q776.9375,390.5 776.5,390.5 Q776.1094,390.5 775.8594,390.3281 Q775.6094,390.1563 775.5,389.7031 Q775.4531,389.3906 775.2813,389.2188 Q774.9688,388.8906 774.4063,388.7031 Q773.8438,388.5 773.2813,388.5 Q772.5781,388.5 771.9844,388.7813 Q771.4063,389.0625 770.9531,389.6875 Q770.5,390.3125 770.5,391.1719 L770.5,392.0938 Q770.5,393.125 771.3438,393.8125 Q772.1875,394.5 773.6875,394.5 Q774.5781,394.5 775.2031,394.2969 Q775.5625,394.1875 775.9688,393.8281 Q776.2344,393.625 776.375,393.5625 Q776.5156,393.5 776.6875,393.5 Q777.0156,393.5 777.25,393.7656 Q777.5,394.0156 777.5,394.375 Q777.5,394.7188 777.1563,395.125 Q776.6563,395.7188 775.8594,396.0469 Q774.8125,396.5 773.5313,396.5 Q772.0313,396.5 770.8281,395.9063 Q769.8594,395.4375 769.1719,394.4219 Q768.5,393.4063 768.5,392.2031 L768.5,391.1094 Q768.5,389.8594 769.0938,388.7656 Q769.7031,387.6719 770.75,387.0938 Q771.8125,386.5 773,386.5 Q773.7188,386.5 774.3438,386.75 Q774.9688,387 775.5,387.5 Z "/><text fill="#000000" font-family="sans-serif" font-size="12" lengthAdjust="spacingAndGlyphs" textLength="79" x="787.5" y="395.9102">GooglePhotos</text><line style="stroke: #A80036; stroke-width: 1.5;" x1="759.5" x2="868.5" y1="407" y2="407"/><line style="stroke: #A80036; stroke-width: 1.5;" x1="759.5" x2="868.5" y1="415" y2="415"/><!--MD5=[750b23178ab507e000fad79191402458]
reverse link photos.downloaders.IObserver to IView--><path d="M164,128.318 C164,145.479 164,165.46 164,183.816 " fill="none" id="photos.downloaders.IObserver&lt;-IView" style="stroke: #A80036; stroke-width: 1.0;"/><polygon fill="none" points="157,128.092,164,108.092,171,128.092,157,128.092" style="stroke: #A80036; stroke-width: 1.0;"/><!--MD5=[3f1f8150f6dd945154321cf7623ba322]
reverse link Controller to photos.GooglePhotos--><path d="M670.12,306.595 C686.518,314.351 702.751,322.543 718,331 C741.284,343.913 765.876,361.155 784.341,374.9138 " fill="none" id="Controller&lt;-photos.GooglePhotos" style="stroke: #A80036; stroke-width: 1.0;"/><polygon fill="#A80036" points="658.163,301.026,661.9132,307.1852,669.041,306.0925,665.2908,299.9332,658.163,301.026" style="stroke: #A80036; stroke-width: 1.0;"/><!--MD5=[2e08da22adc65a78759b68b7fa8fa9e0]
reverse link IView to ConsoleView--><path d="M308.86,301.256 C346.932,314.176 360.372,313.166 389,331 C408.133,342.919 426.415,360.717 439.495,374.9745 " fill="none" id="IView&lt;-ConsoleView" style="stroke: #A80036; stroke-width: 1.0; stroke-dasharray: 7.0,7.0;"/><polygon fill="none" points="306.266,307.761,289.852,294.361,311.04,294.6,306.266,307.761" style="stroke: #A80036; stroke-width: 1.0;"/><!--MD5=[c12ff7f16db12c6bb3c8909f0f34bb44]
reverse link IView to SwingView--><path d="M232.265,315.739 C246.925,331.253 261.841,347.037 274.634,360.575 " fill="none" id="IView&lt;-SwingView" style="stroke: #A80036; stroke-width: 1.0; stroke-dasharray: 7.0,7.0;"/><polygon fill="none" points="227.014,320.374,218.365,301.03,237.189,310.759,227.014,320.374" style="stroke: #A80036; stroke-width: 1.0;"/><!--MD5=[bfa93ba31d6098f1b2374a1b93f1649b]
@startuml


package view {

    interface IView extends photos.downloaders.IObserver {
        +setController(Controller controller): void
        +setLocalFolder(String folder): void
        +setConfigurationFilePath(String path): void
        +setStatus(Status status, String message): void
        +startView(): void
    }

    class Controller {
        - view: IView
        - gPhotos: GooglePhotos

        + setView(IView view): void
        + startDownloadingPhotos(String configurationFile, String localFolder): void
        + stopDownloadingPhotos(): void
    }

    Controller *- - photos.GooglePhotos

    class ConsoleView implements IView {
    }

    note right of ConsoleView
        Just the app logging
    end note

    class SwingView implements IView {
        - frame: JFrame
        - controller: Controller
    }

    note left of SwingView
        Swing framework:
            progressBar,
            statusBar,
            stopDownloading button
    end note

}

@enduml

PlantUML version 1.2019.11(Sun Sep 22 12:02:15 CEST 2019)
(GPL source distribution)
Java Runtime: OpenJDK Runtime Environment
JVM: OpenJDK 64-Bit Server VM
Java Version: 11.0.4+10-b304.77
Operating System: Windows 10
Default Encoding: Cp1252
Language: en
Country: US
--></g></svg>